<?xml version="1.0" standalone="no"?>
<!DOCTYPE svg PUBLIC "-//W3C//DTD SVG 1.1//EN" "http://www.w3.org/Graphics/SVG/1.1/DTD/svg11.dtd" >
<svg xmlns="http://www.w3.org/2000/svg">
<metadata>
This is a custom SVG font generated by IcoMoon.
<iconset grid="16"></iconset>
</metadata>
<defs>
<font id="icomoon" horiz-adv-x="512" >
<font-face units-per-em="512" ascent="480" descent="-32" />
<missing-glyph horiz-adv-x="512" />
<glyph unicode="&#x77;&#x65;&#x62;&#x64;&#x65;&#x76;&#x6e;&#x69;&#x67;&#x68;&#x74;&#x73;" d="M0.00,480.00l0.00-512.00 l 512.00,0.00 L 512.00,480.00 L0.00,480.00 z M 300.80,206.40l-94.626-53.304L 300.80,99.618L 300.80,50.40 l-127.20,78.783L 173.60,176.00 l 127.20,80.00L 300.80,206.40 z M 471.20,110.053
L 344.80,31.20l0.00,48.418 l 92.243,53.914L 344.80,186.40l0.00,49.60 l 126.40-80.00L 471.20,110.053 z" data-tags="wdn" />
<glyph unicode="&#x72;&#x65;&#x66;&#x72;&#x65;&#x73;&#x68;" d="M 437.011,405.01C 390.685,451.338, 326.693,480.00, 256.00,480.00C 146.256,480.00, 52.655,410.936, 16.251,313.906l 59.938-22.477
		C 103.491,364.202, 173.692,416.00, 256.00,416.00c 53.02,0.00, 101.01-21.50, 135.753-56.247L 320.00,288.00l 192.00,0.00 L 512.00,480.00 L 437.011,405.01zM 256.00,32.00c-53.02,0.00-101.013,21.496-135.756,56.244L 192.00,160.00L0.00,160.00 l0.00-192.00 l 74.997,74.997C 121.32-3.334, 185.306-32.00, 256.00-32.00
		c 109.745,0.00, 203.346,69.064, 239.75,166.094l-59.938,22.477C 408.51,83.798, 338.309,32.00, 256.00,32.00z" data-tags="loop, repeat, reload, refresh, update, upgrade, synchronize, media control, arrows" />
<glyph unicode="&#x77;&#x61;&#x72;&#x6e;&#x69;&#x6e;&#x67;" d="M 256.00,400.638 L 83.583,32.00 L 428.417,32.00 L 256.00,400.638 Z M 256.00,480.00 L 256.00,480.00 C 267.035,480.00 278.07,472.559 286.442,457.676 L 504.978,22.12 C 521.723-7.646 507.478-32.00 473.327-32.00 L 38.673-32.00 C 4.521-32.00 -9.722-7.646 7.021,22.12 L 225.558,457.676 C 233.93,472.559 244.965,480.00 256.00,480.00 ZM 224.00,96.00A32.00,32.00 2700.00 1 1 288.00,96A32.00,32.00 2700.00 1 1 224.00,96zM 256.00,288.00 C 273.673,288.00 288.00,273.673 288.00,256.00 L 278.00,160.00 L 234.00,160.00 L 224.00,256.00 C 224.00,273.673 238.327,288.00 256.00,288.00 Z" data-tags="warning, sign" />
<glyph unicode="&#x66;&#x69;&#x72;&#x65;&#x66;&#x6f;&#x78;" d="M 511.263,312.93l-5.93-38.04c0.00,0.00-8.477,70.428-18.866,96.757c-15.923,40.344-23.007,40.02-23.054,39.961
	c 10.665-27.102, 8.731-41.662, 8.731-41.662s-18.896,51.499-68.856,67.884c-55.343,18.141-85.285,13.182-88.744,12.243
	c-0.525,0.004-1.032,0.005-1.515,0.005c 0.409-0.031, 0.806-0.073, 1.213-0.106c-0.017-0.01-0.045-0.021-0.041-0.026
	c 0.225-0.274, 61.153-10.651, 71.958-25.498c0.00,0.00-25.88,0.00-51.636-7.421c-1.164-0.333, 94.762-11.982, 114.373-107.837
	c0.00,0.00-10.515,21.938-23.52,25.664c 8.553-26.018, 6.357-75.388-1.788-99.925c-1.048-3.156-2.12,13.641-18.164,20.875
	c 5.14-36.823-0.308-95.228-25.854-111.316c-1.991-1.252, 16.015,57.655, 3.621,34.881c-71.354-109.401-155.702-50.486-193.624-24.555
	c 19.433-4.231, 56.327,0.659, 72.657,12.806c 0.021,0.015, 0.039,0.028, 0.059,0.043c 17.734,12.126, 28.236,20.982, 37.667,18.886
	c 9.437-2.107, 15.719,7.363, 8.39,15.765c-7.338,8.419-25.157,19.989-49.262,13.683c-17.00-4.452-38.067-23.261-70.224-4.216
	c-24.682,14.625-27.006,26.773-27.225,35.188c 0.609,2.983, 1.377,5.768, 2.288,8.312c 2.841,7.935, 11.456,10.329, 16.247,12.219
	c 8.128-1.396, 15.131-3.931, 22.484-7.703c 0.095,2.447, 0.126,5.695-0.009,9.38c 0.705,1.401, 0.269,5.626-0.861,10.79
	c-0.651,5.154-1.71,10.487-3.376,15.346c 0.006,0.001, 0.01,0.005, 0.015,0.007c 0.028,0.009, 0.054,0.02, 0.078,0.035
	c 0.039,0.022, 0.073,0.056, 0.104,0.095c 0.006,0.01, 0.015,0.017, 0.022,0.026c 0.041,0.062, 0.077,0.136, 0.099,0.233
	c 0.51,2.309, 6.011,6.762, 12.859,11.55c 6.136,4.29, 13.351,8.848, 19.034,12.376c 5.03,3.124, 8.86,5.441, 9.673,6.049
	c 0.309,0.233, 0.679,0.506, 1.082,0.818c 0.075,0.058, 0.15,0.116, 0.227,0.177c 0.047,0.037, 0.095,0.074, 0.143,0.113
	c 2.705,2.154, 6.742,6.224, 7.589,14.789c 0.002,0.021, 0.005,0.04, 0.006,0.061c 0.025,0.252, 0.046,0.507, 0.065,0.767
	c 0.014,0.181, 0.025,0.363, 0.036,0.548c 0.007,0.142, 0.016,0.283, 0.022,0.428c 0.015,0.337, 0.025,0.682, 0.03,1.032
	c0.00,0.02, 0.001,0.038, 0.002,0.058c 0.011,0.829-0.003,1.693-0.052,2.601c-0.027,0.507-0.063,0.965-0.149,1.381
	c-0.004,0.022-0.009,0.046-0.014,0.068c-0.009,0.041-0.018,0.082-0.029,0.122c-0.018,0.073-0.038,0.146-0.061,0.215
	c-0.003,0.009-0.005,0.016-0.008,0.023c-0.026,0.08-0.056,0.157-0.087,0.232c-0.002,0.003-0.002,0.005-0.003,0.008
	c-0.877,2.054-4.16,2.829-17.721,3.059c-0.013,0.001-0.025,0.001-0.038,0.001l0.00,0.00c-5.533,0.094-12.769,0.097-22.251,0.059
	c-16.625-0.067-25.814,16.252-28.747,22.566c 4.02,22.23, 15.638,38.071, 34.725,48.813c 0.361,0.203, 0.29,0.371-0.137,0.489
	c 3.732,2.257-45.123,0.062-67.593-28.518c-19.944,4.957-37.327,4.623-52.308,1.107c-2.877,0.081-6.462,0.44-10.717,1.326
	c-9.962,9.028-24.224,25.701-24.988,45.604c0.00,0.00-0.046-0.036-0.126-0.102c-0.01,0.191-0.028,0.38-0.036,0.571
	c0.00,0.00-30.358-23.332-25.814-86.941c-0.011-1.018-0.032-1.993-0.06-2.937c-8.216-11.144-12.293-20.51-12.596-22.578
	C 13.398,316.822, 6.011,294.517,0.00,260.654c0.00,0.00, 4.204,13.333, 12.642,28.433c-6.206-19.011-11.082-48.578-8.218-92.928
	c0.00,0.00, 0.757,9.833, 3.437,23.997c 2.093-27.505, 11.259-61.462, 34.429-101.394c 44.474-76.66, 112.835-115.37, 188.396-121.308
	c 13.418-1.106, 27.025-1.132, 40.712-0.093c 1.258,0.089, 2.516,0.182, 3.775,0.287c 15.482,1.087, 31.067,3.426, 46.619,7.183
	C 534.378,56.23, 511.263,312.93, 511.263,312.93z" data-tags="firefox, browser, internet" />
<glyph unicode="&#x63;&#x68;&#x72;&#x6f;&#x6d;&#x65;" d="M 129.139,256.729 L 55.873,383.63 C 102.782,442.362 174.99,480.00 256.00,480.00 C 349.716,480.00 431.655,429.632 476.266,354.50 L 267.381,354.50 C 263.629,354.825 259.835,355.00 256.00,355.00 C 195.063,355.00 143.711,313.178 129.139,256.729 ZM 347.653,317.50 L 494.383,317.50 C 505.753,288.535 512.00,256.998 512.00,224.00 C 512.00,83.587 398.95-30.402 258.907-31.963 L 363.604,149.376 C 378.344,170.565 387.00,196.289 387.00,224.00 C 387.00,260.585 371.918,293.71 347.653,317.50 ZM 163.00,224.00 C 163.00,275.28 204.72,317.00 256.00,317.00 C 307.28,317.00 349.00,275.28 349.00,224.00 C 349.00,172.72 307.28,131.00 256.00,131.00 C 204.72,131.00 163.00,172.72 163.00,224.00 ZM 291.091,97.779 L 217.802-29.16 C 94.536-10.718 0.00,95.598 0.00,224.00 C 0.00,269.609 11.942,312.423 32.848,349.512 L 137.363,168.485 C 158.297,123.929 203.601,93.00 256.00,93.00 C 268.15,93.00 279.918,94.67 291.091,97.779 Z" data-tags="chrome, browser, internet" />
<glyph unicode="&#x70;&#x61;&#x79;&#x70;&#x61;&#x6c;" d="M 440.317,414.613c 12.849-6.288, 24.047-15.243, 32.251-26.241c 17.268-23.15, 22.118-54.686, 14.418-93.733
	c-7.78-39.513-25.208-72.867-50.583-97.022c-4.641-4.851-9.611-9.373-14.902-13.54c-27.178-21.401-61.499-32.714-99.254-32.714
	l-6.056,0.00 L 202.217,151.363 L 169.935,0.00l-66.212,0.00 l 5.043,23.15l 23.064,0.00 l 32.282,151.363l 94.135,0.00 c 90.125,0.00, 165.469,55.539, 185.629,149.968
	C 466.737,431.398, 390.077,480.00, 324.171,480.00L 99.532,480.00 L0.00,23.15l 76.016,0.00 L 64.00-32.00l 131.83,0.00 l 32.282,151.363l 94.135,0.00 
	c 90.125,0.00, 165.469,55.539, 185.629,149.968C 524.734,348.171, 487.474,395.297, 440.317,414.613z M 211.172,386.959l 64.566,0.00 
	c 32.296,0.00, 53.801-27.769, 44.393-62.478c-8.068-34.72-41.693-62.488-75.32-62.488l-61.879,0.00 L 211.172,386.959z" data-tags="paypal, donate" />
<glyph unicode="&#x73;&#x61;&#x66;&#x61;&#x72;&#x69;" d="M 256.00,448.00c-12.032,0.00-23.854-0.896-35.412-2.606c-0.15,0.391-0.312,0.774-0.491,1.148c 6.413,5.001, 9.775,11.915, 8.317,18.776
		C 226.547,474.10, 217.217,480.00, 205.197,480.00c-2.59,0.00-5.229-0.281-7.84-0.836c-15.084-3.207-25.073-14.311-22.741-25.281
		c 1.417-6.669, 7.146-11.669, 15.082-13.692c-0.016-0.486-0.008-0.975, 0.021-1.467C 89.408,409.959, 16.00,317.555, 16.00,208.00
		c0.00-132.549, 107.452-240.00, 240.00-240.00c 132.549,0.00, 240.00,107.451, 240.00,240.00C 496.00,340.548, 388.549,448.00, 256.00,448.00z M 182.441,455.546
		c-1.353,6.363, 6.24,13.595, 16.579,15.792C 201.086,471.777, 203.165,472.00, 205.197,472.00c 8.018,0.00, 14.347-3.432, 15.392-8.345
		c 0.798-3.755-1.535-7.805-5.693-10.952c-3.517,2.483-8.008,3.563-12.55,2.598c-4.522-0.961-8.174-3.754-10.379-7.428
		C 186.875,449.098, 183.213,451.915, 182.441,455.546z M 384.693,79.307c-21.984-21.984-48.605-37.639-77.655-46.077l-21.198,34.384
		l-5.373-39.979C 272.422,26.559, 264.254,26.00, 256.00,26.00c-48.614,0.00-94.318,18.932-128.693,53.307
		c-21.984,21.983-37.639,48.605-46.077,77.654l 34.384,21.199l-39.98,5.373C 74.559,191.578, 74.00,199.746, 74.00,208.00
		c0.00,48.614, 18.931,94.318, 53.307,128.693c 21.984,21.984, 48.606,37.639, 77.655,46.078l 21.198-34.385l 5.374,39.98
		C 239.578,389.441, 247.746,390.00, 256.00,390.00c 48.614,0.00, 94.318-18.931, 128.693-53.307c 21.984-21.984, 37.639-48.606, 46.077-77.655
		l-34.385-21.199l 39.98-5.373C 437.441,224.422, 438.00,216.254, 438.00,208.00C 438.00,159.386, 419.068,113.682, 384.693,79.307zM 380.451,332.451l-98.489-74.852c-7.322,3.829-15.438,6.031-23.708,6.363l-25.54,53.59l-1.534-59.332
		c-6.642-3.268-12.552-7.832-17.438-13.475l-31.544,11.182l 23.046-24.269c-3.167-6.759-4.933-14.015-5.217-21.412l-53.579-25.533
		l 59.369-1.534c 0.19-0.384, 0.387-0.763, 0.585-1.141l-74.852-98.49l 98.489,74.852c 7.322-3.828, 15.437-6.03, 23.708-6.362l 25.54-53.591
		l 1.533,59.332c 6.643,3.269, 12.553,7.832, 17.439,13.476l 31.545-11.184l-23.047,24.27c 3.168,6.76, 4.934,14.015, 5.218,21.412
		l 53.578,25.533l-59.368,1.535c-0.189,0.383-0.387,0.762-0.585,1.14L 380.451,332.451z M 256.051,257.733l0.00-1.724 L 256.051,257.733 
		L 256.051,257.733z M 246.021,254.951c 3.363,0.715, 6.722,1.059, 10.028,1.059c 2.072,0.00, 4.125-0.135, 6.147-0.398l 0.046-0.016
		l-0.005,0.011c 4.366-0.572, 8.588-1.75, 12.566-3.448l-35.773-27.188l-27.19-35.776c-1.188,2.797-2.135,5.742-2.79,8.826
		C 203.537,223.951, 220.09,249.439, 246.021,254.951z M 281.06,167.058L 281.06,167.058L 281.06,167.058
		c-4.528-2.772-9.591-4.842-15.08-6.009c-3.363-0.715-6.722-1.059-10.027-1.059c-2.075,0.00-4.129,0.136-6.154,0.399l-0.039,0.015
		l 0.005-0.01c-4.367,0.571-8.587,1.75-12.566,3.447l 35.772,27.188l 27.19,35.777c 1.188-2.797, 2.135-5.743, 2.79-8.827
		C 307.296,197.538, 297.923,177.379, 281.06,167.058z" data-tags="safari, browser, internet" />
<glyph unicode="&#x70;&#x61;&#x75;&#x73;&#x65;" d="M 64.00,416.00L 224.00,416.00L 224.00,32.00L 64.00,32.00zM 288.00,416.00L 448.00,416.00L 448.00,32.00L 288.00,32.00z" data-tags="pause, media control, audio" />
<glyph unicode="&#x68;&#x74;&#x6d;&#x6c;&#x35;" d="M 30.269,480.00l 41.072-460.815L 255.719-32.00l 184.862,51.262L 481.731,480.00L 30.269,480.00 z M 392.315,329.286l-0.195,0.00 L 176.045,329.286 l 5.151-57.875
	L 387.18,271.411 l-15.521-173.505L 255.99,65.818l-0.115-0.039l-0.077,0.00 l-0.061,0.00 l-115.786,32.127l-7.915,88.756l 56.747,0.00 l 4.024-45.116
	l 62.931-16.958l 0.139,0.039l 62.967,16.996l 6.535,73.275L 129.509,214.898 L 114.262,385.798l 283.107,0.00 L 392.315,329.286z" data-tags="html5, w3c" />
<glyph unicode="&#x63;&#x72;&#x6f;&#x73;&#x73;" d="M 256.00,480.00C 114.615,480.00,0.00,365.385,0.00,224.00s 114.615-256.00, 256.00-256.00s 256.00,114.615, 256.00,256.00S 397.385,480.00, 256.00,480.00z M 384.00,306.745L 301.256,224.00
	L 384.00,141.256L 384.00,96.00 l-45.256,0.00 L 256.00,178.744L 173.255,96.00L 128.00,96.00 l0.00,45.256 L 210.745,224.00L 128.00,306.745L 128.00,352.00 l 45.255,0.00 L 256.00,269.255L 338.744,352.00L 384.00,352.00 
	L 384.00,306.745 z" data-tags="cancel-circle, close, remove, delete" />
<glyph unicode="&#x61;&#x70;&#x70;&#x6c;&#x65;" d="M 395.749,207.954c-0.647,64.841, 52.879,95.938, 55.271,97.483c-30.076,44.01-76.925,50.039-93.621,50.736
		c-39.871,4.037-77.798-23.474-98.033-23.474c-20.184,0.00-51.409,22.877-84.476,22.276c-43.458-0.646-83.529-25.269-105.906-64.19
		c-45.152-78.349-11.563-194.42, 32.445-257.963c 21.504-31.102, 47.146-66.038, 80.813-64.79c 32.421,1.294, 44.681,20.979, 83.878,20.979
		c 39.197,0.00, 50.214-20.979, 84.525-20.335c 34.887,0.648, 56.991,31.699, 78.346,62.898c 24.695,36.084, 34.863,71.019, 35.462,72.813
		C 463.679,104.74, 396.423,130.505, 395.749,207.954zM 331.281,398.239C 349.15,419.918, 361.211,449.995, 357.921,480.00c-25.739-1.048-56.939-17.145-75.405-38.775
		c-16.571-19.188-31.074-49.813-27.187-79.218C 284.062,359.765, 313.393,376.609, 331.281,398.239z" data-tags="apple" />
<glyph unicode="&#x6f;&#x70;&#x65;&#x72;&#x61;" d="M 255.023,480.00C 115.161,480.00, 14.649,378.552, 14.649,226.388C 14.649,90.979, 112.40-32.00, 255.041-32.00
	c 144.039,0.00, 242.31,122.943, 242.31,258.388C 497.351,379.768, 393.628,480.00, 255.023,480.00z M 344.179,230.729
	c-0.034-84.676-4.549-205.241-89.138-205.241l0.00-0.017 c-83.392,0.00-86.716,120.633-86.716,205.154c0.00,99.19, 9.28,194.284, 86.716,194.284
	C 332.478,424.909, 344.179,328.617, 344.179,230.729z" data-tags="opera, browser, internet" />
<glyph unicode="&#x73;&#x74;&#x6f;&#x70;" d="M 64.00,416.00L 448.00,416.00L 448.00,32.00L 64.00,32.00z" data-tags="stop, media control, audio, square" />
<glyph unicode="&#x70;&#x6c;&#x61;&#x79;" d="M 96.00,416.00L 416.00,224.00L 96.00,32.00 z" data-tags="play, media control, audio" />
<glyph unicode="&#x74;&#x69;&#x63;&#x6b;" d="M 256.00,480.00C 114.615,480.00,0.00,365.385,0.00,224.00s 114.615-256.00, 256.00-256.00s 256.00,114.615, 256.00,256.00S 397.385,480.00, 256.00,480.00z M 208.00,64.00L 102.00,202.00l 47.00,49.00l 59.00-75.00
	l 185.00,151.00l 23.00-23.00L 208.00,64.00z" data-tags="checkmark-circle, tick, correct" />
<glyph unicode="&#x64;&#x72;&#x6f;&#x70;" d="M 447.97,163.249c-0.006,0.353-0.015,0.701-0.021,1.053c-0.016,0.714-0.035,1.427-0.059,2.14C 442.875,324.266, 256.00,480.00, 256.00,480.00
		S 69.123,324.266, 64.11,166.439c-0.022-0.715-0.044-1.426-0.06-2.141c-0.007-0.352-0.015-0.701-0.021-1.053
		c-0.018-1.08-0.028-2.162-0.028-3.248c0.00-1.184, 0.014-2.361, 0.035-3.539c 0.002-0.098, 0.003-0.195, 0.007-0.293
		C 66.082,51.899, 151.241-32.00, 256.00-32.00c 104.758,0.00, 189.916,83.899, 191.959,188.168c 0.002,0.098, 0.004,0.196, 0.005,0.293
		c 0.021,1.178, 0.036,2.357, 0.036,3.539C 448.00,161.086, 447.988,162.168, 447.97,163.249z M 383.975,157.63l-0.004-0.203
		c-0.659-33.643-14.266-65.167-38.313-88.774C 321.587,45.017, 289.743,32.00, 256.00,32.00c-6.231,0.00-12.397,0.447-18.462,1.319
		c 69.528,41.423, 116.108,117.352, 116.108,204.161c0.00,9.728-0.59,19.317-1.726,28.74c 20.136-36.97, 31.032-71.40, 32.001-101.813
		l 0.002-0.072c 0.016-0.474, 0.026-0.946, 0.039-1.422l 0.014-0.724C 383.99,161.461, 384.00,160.73, 384.00,160.00
		C 384.00,159.208, 383.99,158.419, 383.975,157.63z" data-tags="droplet, colors, water" />
<glyph unicode="&#x69;&#x65;" d="M 367.101,165.585l 118.025,0.00 c 0.91,8.185, 1.274,16.549, 1.274,25.098c0.00,40.112-10.767,77.734-29.562,110.133
	c 19.44,51.654, 18.746,95.494-7.278,121.695c-24.748,24.64-91.145,20.64-166.206-12.599c-5.552,0.42-11.159,0.636-16.819,0.636
	c-103.024,0.00-189.463-70.897-213.354-166.425C 85.50,285.50, 119.50,315.50, 164.92,337.347c-4.13-3.87-28.227-27.826-32.28-31.882
	C 12.866,185.726-24.905,29.312, 15.737-11.337c 30.893-30.887, 86.879-25.671, 151.188,5.824
	c 29.903-15.229, 63.75-23.815, 99.609-23.815c 96.567,0.00, 178.402,62.158, 208.045,148.724L 355.645,119.396 
	c-16.367-30.191-48.374-50.74-85.109-50.74c-36.734,0.00-68.742,20.549-85.108,50.74c-7.275,13.637-11.457,29.277-11.457,45.828l0.00,0.361 
	L 367.101,165.585 z M 174.151,223.598c 2.728,48.555, 43.10,87.292, 92.383,87.292c 49.283,0.00, 89.656-38.736, 92.383-87.292L 174.151,223.598 z M 448.483,398.096
	c 16.763-16.94, 16.344-48.107, 2.006-87.011c-24.568,37.454-60.259,66.968-102.396,83.82
	C 393.146,414.224, 429.796,416.783, 448.483,398.096z M 46.741-3.628c-21.391,21.398-14.942,66.309, 12.615,120.416
	c 17.154-48.135, 50.578-88.545, 93.668-114.577C 105.309-19.448, 66.256-23.126, 46.741-3.628z" data-tags="IE, browser, internet explorer" />
<glyph unicode="&#xfb03;" d="M 302.50,375.75q0.00,15.75 10.50,27.00t 25.50,11.25q 14.25,0.00 24.75-11.25t 10.50-27.00q0.00-15.25 -10.50-26.625t-24.75-11.375q-14.75,0.00 -25.375,11.375t-10.625,26.625zM 309.25,70.50q 1.00,10.25 1.00,34.75l0.00,159.25 q0.00,24.00 -1.00,33.25l 58.00,0.00 q-1.00-9.75 -1.25-32.25l0.00-157.00 q0.00-26.00 1.25-38.00l-58.00,0.00 zM 146.75,248.25l0.00,49.50 l 24.25,0.00 q0.00,53.75 13.25,80.50q 18.50,36.75 65.50,36.75q 20.00,0.00 36.75-6.50l0.00-52.25  q-13.25,7.75 -29.50,7.75q-19.50,0.00 -26.25-16.50q-4.00-10.25 -4.00-33.75l0.00-16.00 l 51.25,0.00 l0.00-49.50 q-29.75,1.00 -28.75,1.00l-22.50,0.00 l0.00-140.75 q0.00-26.00 1.50-38.00l-59.00,0.00 q 1.50,11.75 1.75,38.00l0.00,140.75 l-7.75,0.50q-5.25,0.00 -16.50-1.50zM 3.50,248.25l0.00,49.50 l 24.25,0.00 q0.00,53.75 13.25,80.50q 18.50,36.75 65.50,36.75q 20.00,0.00 36.75-6.50l0.00-52.25 q-13.25,7.75 -29.50,7.75q-19.50,0.00 -26.25-16.50q-4.00-10.25 -4.00-33.75l0.00-16.00 l 51.25,0.00  l0.00-49.50 q-29.75,1.00 -28.75,1.00l-22.50,0.00 l0.00-140.75 q0.00-26.00 1.50-38.00l-59.00,0.00 q 1.50,11.75 1.75,38.00l0.00,140.75 l-7.75,0.50q-5.25,0.00 -16.50-1.50z" horiz-adv-x="386.5" />
<glyph unicode="&#xfb02;" d="M 165.25,70.50q 1.50,10.25 1.50,34.75l0.00,273.50 q0.00,24.00 -1.50,33.25l 58.50,0.00 q-1.50-9.75 -1.75-32.25l0.00-271.25 q0.00-26.00 1.75-38.00l-58.50,0.00 zM 3.50,248.25l0.00,49.50 l 24.25,0.00 q0.00,53.75 13.25,80.50q 18.50,36.75 65.50,36.75q 20.00,0.00 36.75-6.50l0.00-52.25 q-13.25,7.75 -29.50,7.75q-19.50,0.00 -26.25-16.50q-4.00-10.25 -4.00-33.75l0.00-16.00 l 51.25,0.00 l0.00-49.50 q-29.75,1.00 -28.75,1.00l-22.50,0.00 l0.00-140.75 q0.00-26.00 1.50-38.00l-59.00,0.00  q 1.50,11.75 1.75,38.00l0.00,140.75 l-7.75,0.50q-5.25,0.00 -16.50-1.50z" horiz-adv-x="243" />
<glyph unicode="&#x2219;" d="M 20.50,244.50q0.00,16.50 11.25,28.00t 28.25,11.50q 15.75,0.00 27.25-11.50t 11.50-28.00q0.00-17.00 -11.25-28.125t-27.50-11.125q-16.50,0.00 -28.00,11.375t-11.50,27.875z" horiz-adv-x="119.25" />
<glyph unicode="&#xfb04;" d="M 308.75,70.50q 1.50,10.25 1.50,34.75l0.00,273.50 q0.00,24.00 -1.50,33.25l 58.50,0.00 q-1.50-9.75 -1.75-32.25l0.00-271.25 q0.00-26.00 1.75-38.00l-58.50,0.00 zM 146.75,248.25l0.00,49.50 l 24.25,0.00 q0.00,53.75 13.25,80.50q 18.50,36.75 65.50,36.75q 20.00,0.00 36.75-6.50l0.00-52.25 q-13.25,7.75 -29.50,7.75q-19.50,0.00 -26.25-16.50q-4.00-10.25 -4.00-33.75l0.00-16.00 l 51.25,0.00 l0.00-49.50 q-29.75,1.00 -28.75,1.00l-22.50,0.00 l0.00-140.75 q0.00-26.00 1.50-38.00l-59.00,0.00  q 1.50,11.75 1.75,38.00l0.00,140.75 l-7.75,0.50q-5.25,0.00 -16.50-1.50zM 3.50,248.25l0.00,49.50 l 24.25,0.00 q0.00,53.75 13.25,80.50q 18.50,36.75 65.50,36.75q 20.00,0.00 36.75-6.50l0.00-52.25 q-13.25,7.75 -29.50,7.75q-19.50,0.00 -26.25-16.50q-4.00-10.25 -4.00-33.75l0.00-16.00 l 51.25,0.00 l0.00-49.50 q-29.75,1.00 -28.75,1.00l-22.50,0.00 l0.00-140.75 q0.00-26.00 1.50-38.00l-59.00,0.00 q 1.50,11.75 1.75,38.00l0.00,140.75 l-7.75,0.50q-5.25,0.00 -16.50-1.50z" horiz-adv-x="386.5" />
<glyph unicode="&#xfb01;" d="M 159.00,375.75q0.00,15.75 10.50,27.00t 25.50,11.25q 14.25,0.00 24.75-11.25t 10.50-27.00q0.00-15.25 -10.50-26.625t-24.75-11.375q-14.75,0.00 -25.375,11.375t-10.625,26.625zM 165.75,70.50q 1.00,10.25 1.00,34.75l0.00,159.25 q0.00,24.00 -1.00,33.25l 58.00,0.00 q-1.00-9.75 -1.25-32.25l0.00-157.00 q0.00-26.00 1.25-38.00l-58.00,0.00 zM 3.50,248.25l0.00,49.50 l 24.25,0.00 q0.00,53.75 13.25,80.50q 18.50,36.75 65.50,36.75q 20.00,0.00 36.75-6.50l0.00-52.25  q-13.25,7.75 -29.50,7.75q-19.50,0.00 -26.25-16.50q-4.00-10.25 -4.00-33.75l0.00-16.00 l 51.25,0.00 l0.00-49.50 q-29.75,1.00 -28.75,1.00l-22.50,0.00 l0.00-140.75 q0.00-26.00 1.50-38.00l-59.00,0.00 q 1.50,11.75 1.75,38.00l0.00,140.75 l-7.75,0.50q-5.25,0.00 -16.50-1.50z" horiz-adv-x="243" />
<glyph unicode="&#xe000;" d="M0.00,298.00l 227.50,0.00 l0.00-227.50 l-227.50,0.00 l0.00,227.50 z" horiz-adv-x="227.5" />
<glyph unicode="&#x2122;" d="M 13.25,404.75l0.00,28.25 l 124.00,0.00 l0.00-28.25 l-48.25,0.00 l0.00-168.25 l-26.50,0.00 l0.00,168.25 l-49.25,0.00 zM 162.25,236.50l0.00,196.50 l 45.50,0.00 l 28.75-140.75l 5.75,0.00 l 28.50,140.75l 45.75,0.00 l0.00-196.50 l-24.75,0.00 l0.00,162.75 l-6.00,0.00 l-34.25-162.75l-24.75,0.00 l-33.75,162.75l-6.00,0.00 l0.00-162.75 l-24.75,0.00 z" horiz-adv-x="336.75" />
<glyph unicode="&#x2212;" d="M 26.50,209.75l0.00,62.50 l 235.75,0.00 l0.00-62.50 l-235.75,0.00 z" horiz-adv-x="287" />
<glyph unicode="&#x20ac;" d="M 2.00,190.25q 2.00,15.75 4.25,33.75q 21.50-1.50 21.50,0.00q-0.50,25.00 -0.50,25.75q0.00,3.50 0.50,7.00l-17.00,0.00 l 4.00,34.00l 17.00,0.00 q 10.25,52.75 42.00,87.50q 34.75,38.50 83.00,38.25q 28.25,0.00 59.25-11.75l0.00-61.25 q-30.25,15.25 -53.25,15.25q-45.50,0.00 -64.00-68.00l 76.25,0.00 l-5.50-34.00l-75.75,0.00 q-0.50-3.50 -0.50-7.00q0.00-13.25 1.00-25.25l 69.50,0.00 l-4.50-33.75l-61.00,0.00 q 13.75-64.50 64.50-64.50q 16.50,0.00 28.25,4.25 q 3.50,1.50 25.00,12.25l 0.50-65.00q-36.25-11.25 -59.75-11.25q-106.00,0.00 -125.50,123.75l-29.25,0.00 z" horiz-adv-x="236.5" />
<glyph unicode="&#x2010;" d="M 12.75,165.25l0.00,51.25 q 4.00-1.00 28.75-1.00l 75.75,0.00 q 23.50,0.00 28.75,1.00l0.00-51.25 q-9.25,1.00 -31.25,1.00l-65.50,0.00 q-28.25,0.00 -36.50-1.00z" horiz-adv-x="164.25" />
<glyph unicode="&#x2011;" d="M 12.75,165.25l0.00,51.25 q 4.00-1.00 28.75-1.00l 75.75,0.00 q 23.50,0.00 28.75,1.00l0.00-51.25 q-9.25,1.00 -31.25,1.00l-65.50,0.00 q-28.25,0.00 -36.50-1.00z" horiz-adv-x="164.25" />
<glyph unicode="&#x2012;" d="M 12.75,165.25l0.00,51.25 q 4.00-1.00 28.75-1.00l 75.75,0.00 q 23.50,0.00 28.75,1.00l0.00-51.25 q-9.25,1.00 -31.25,1.00l-65.50,0.00 q-28.25,0.00 -36.50-1.00z" horiz-adv-x="164.25" />
<glyph unicode="&#x2013;" d="M 23.50,165.25l0.00,51.25 q 4.50-1.00 28.75-1.00l 153.00,0.00 q 19.50,0.00 28.75,2.00l0.00-52.25 q-9.25,1.00 -31.25,1.00l-142.75,0.00 q-28.25,0.00 -36.50-1.00z" horiz-adv-x="258" />
<glyph unicode="&#x2014;" d="M 23.50,165.25l0.00,51.25 q 4.50-1.00 28.75-1.00l 327.25,0.00 q 19.50,0.00 28.50,2.00l0.00-52.25 q-9.25,1.00 -31.25,1.00l-316.75,0.00 q-28.25,0.00 -36.50-1.00z" horiz-adv-x="436" />
<glyph unicode="&#x2018;" d="M 25.50,352.00q0.00,33.75 29.25,63.50l 38.00,0.00 q-17.50-14.75 -27.25-38.25q 12.25-0.50 20.50-9.75t 8.25-21.50q0.00-14.25 -9.75-24.25t-24.00-10.00q-15.75,0.00 -25.75,12.75q-9.25,11.00 -9.25,27.50z" horiz-adv-x="119.25" />
<glyph unicode="&#x2019;" d="M 25.50,381.25q0.00,14.75 9.50,24.50t 24.00,9.75q 16.50,0.00 25.875-12.00t 9.375-28.25q0.00-34.25 -29.25-63.50l-37.75,0.00 q 17.50,15.75 26.50,38.25q-11.75,0.00 -20.00,9.75t-8.25,21.50z" horiz-adv-x="119.25" />
<glyph unicode="&#x201a;" d="M 25.50,101.75q0.00,14.25 9.75,24.00t 24.25,9.75q 16.50,0.00 25.875-11.75t 9.375-28.75q0.00-32.25 -29.25-63.50l-38.25,0.00 q 17.50,15.75 27.00,38.50q-12.25,0.50 -20.50,10.00t-8.25,21.75z" horiz-adv-x="121.25" />
<glyph unicode="&#x201c;" d="M 25.50,352.00q0.00,33.75 29.25,63.50l 38.50,0.00 q-17.50-14.75 -27.25-38.25q 12.25-0.50 20.50-9.75t 8.25-21.50q0.00-14.25 -9.75-24.25t-24.00-10.00q-16.50,0.00 -26.25,12.75q-9.25,11.00 -9.25,27.50zM 105.00,352.00q0.00,33.75 29.25,63.50l 38.75,0.00 q-18.00-14.75 -27.00-38.25q 12.25-0.50 20.125-9.75t 7.875-21.50q0.00-14.75 -9.375-24.50t-24.375-9.75q-15.75,0.00 -26.00,12.75q-9.25,11.00 -9.25,27.50z" horiz-adv-x="199.5" />
<glyph unicode="&#x201d;" d="M 25.50,381.25q0.00,14.75 9.75,24.50t 24.25,9.75q 16.50,0.00 25.875-12.00t 9.375-28.25q0.00-34.25 -29.25-63.50l-38.25,0.00 q 18.00,15.75 27.00,38.25q-12.25,0.00 -20.50,9.75t-8.25,21.50zM 105.00,381.25q0.00,14.75 9.75,24.50t 24.50,9.75q 16.50,0.00 25.625-12.00t 9.125-28.25q0.00-33.75 -29.00-63.50l-38.50,0.00 q 18.00,15.75 27.25,38.25q-12.25,0.00 -20.50,9.75t-8.25,21.50z" horiz-adv-x="199.5" />
<glyph unicode="&#x201e;" d="M 25.50,101.75q0.00,14.25 9.75,24.00t 24.25,9.75q 16.50,0.00 25.875-11.75t 9.375-28.75q0.00-32.25 -29.25-63.50l-38.25,0.00 q 17.50,15.75 27.00,38.50q-12.25,0.50 -20.50,10.00t-8.25,21.75zM 105.00,101.75q0.00,14.25 9.75,24.00t 24.50,9.75q 16.50,0.00 25.625-11.75t 9.125-28.75q0.00-33.75 -29.00-63.50l-38.50,0.00 q 17.50,15.25 27.25,38.50q-12.25,0.50 -20.50,10.00t-8.25,21.75z" horiz-adv-x="199.5" />
<glyph unicode="&#x2022;" d="M 20.50,244.50q0.00,24.50 17.125,41.75t 41.625,17.25t 41.75-17.125t 17.25-41.875q0.00-24.50 -17.125-41.625t-41.875-17.125q-24.50,0.00 -41.625,17.125t-17.125,41.625z" horiz-adv-x="158.5" />
<glyph unicode="&#x2026;" d="M 46.00,106.25q0.00,16.50 11.50,27.75t 28.50,11.25q 16.50,0.00 28.25-11.50t 11.75-27.50q0.00-16.50 -11.75-27.875t-28.25-11.375t-28.25,11.75t-11.75,27.50zM 216.00,106.25q0.00,16.50 11.50,27.75t 28.50,11.25q 16.50,0.00 28.25-11.50t 11.75-27.50q0.00-15.75 -12.125-27.50t-27.875-11.75q-16.50,0.00 -28.25,11.375t-11.75,27.875zM 386.00,106.25q0.00,16.50 11.50,27.75t 28.50,11.25q 16.50,0.00 28.25-11.50t 11.75-27.50 q0.00-16.50 -11.875-27.875t-28.125-11.375q-16.50,0.00 -28.25,11.75t-11.75,27.50z" />
<glyph unicode="&#x2039;" d="M 20.50,193.50l 53.25,87.00l 26.00-14.50l-29.00-74.25l 29.00-72.50l-27.50-12.50z" horiz-adv-x="120.25" />
<glyph unicode="&#x203a;" d="M 20.50,121.25l 28.75,74.25l-28.75,72.75l 27.75,12.25l 51.50-86.50l-53.25-87.25z" horiz-adv-x="120.25" />
<glyph unicode="&#x2dc;" d="M 34.25,373.00q 22.00,31.25 48.25,31.25q 9.75,0.00 26.375-7.875t 22.625-7.875q 14.25,0.00 27.25,19.00l 18.00-30.25q-24.00-27.75 -45.75-27.75q-11.25,0.00 -28.125,8.75t-23.125,8.75q-12.75,0.00 -27.50-22.00z" horiz-adv-x="210.25" />
<glyph unicode="&#x178;" d="M 7.75,412.00l 62.50,0.00 q 3.00-19.50 10.25-36.75l 43.00-102.50l 42.00,102.50q 7.25,18.00 9.50,36.75l 64.50,0.00 l-85.50-201.75l0.00-93.25 q0.00-29.25 2.25-46.50l-66.75,0.00 q 2.00,19.00 2.25,48.25l0.00,91.00 zM 53.25,492.50q0.00,12.25 8.75,20.625t 21.00,8.375t 20.75-8.375t 8.50-20.625q0.00-11.75 -8.50-20.25t-20.75-8.50t-21.00,8.50t-8.75,20.25zM 137.75,492.50q0.00,12.25 8.75,20.625t 21.00,8.375q 11.75,0.00 20.375-8.375 t 8.625-20.625q0.00-11.75 -8.375-20.25t-20.625-8.50t-21.00,8.50t-8.75,20.25z" horiz-adv-x="249.75" />
<glyph unicode="&#x153;" d="M 11.75,182.75q0.00,48.75 27.25,81.25q 29.25,34.75 77.25,34.75q 41.00,0.00 68.50-28.50q 26.50,29.75 65.00,29.75q 42.00,0.00 66.75-30.25q 22.50-27.25 22.50-70.25q0.00-13.75 -2.50-32.25l-120.00,0.00 q 3.50-49.25 51.75-49.25q 31.25,0.00 71.25,31.25l-1.50-63.50q-38.50-19.00 -73.25-18.75q-48.75,0.00 -77.25,31.25q-27.75-31.25 -72.25-31.25q-47.50,0.00 -76.25,34.75q-27.25,32.75 -27.25,81.00z M 73.75,183.25q0.00-25.50 8.75-43.00q 11.25-22.50 34.25-22.75q 43.00,0.00 43.00,65.75q0.00,65.50 -43.00,65.50q-23.00,0.00 -34.25-22.50q-8.75-17.50 -8.75-43.00zM 216.00,214.25l 66.50,0.00 q-2.00,38.50 -32.75,38.50q-31.25,0.00 -33.75-38.50z" horiz-adv-x="352.75" />
<glyph unicode="&#x152;" d="M 13.75,242.00q0.00,71.75 24.25,115.75q 30.75,56.75 96.25,56.75q 41.50,0.00 67.50-25.50l0.00,23.00 l 168.00,0.00 l0.00-59.50 q-33.25,3.50 -59.00,3.75l-46.00,0.00 l0.00-85.00 l 32.75,0.00 q 21.00,0.00 50.75,3.50l0.00-60.50 q-27.75,3.50 -47.75,3.75l-35.75,0.00 l0.00-91.75 l 52.25,0.00 q 30.25,0.00 58.25,3.75l0.00-59.50 l-173.50,0.00 l0.00,24.50 q-25.50-27.25 -67.00-27.00q-67.00,0.00 -98.00,56.75q-23.00,44.00 -23.00,117.25zM 79.75,241.00q0.00-50.25 8.25-75.75 q 13.75-43.50 52.25-43.50t 52.25,43.50q 8.25,26.00 8.25,75.75q0.00,50.25 -8.25,76.25q-13.75,43.50 -52.25,43.50q-38.00,0.00 -51.75-43.50q-8.75-26.50 -8.75-76.25z" horiz-adv-x="384.5" />
<glyph unicode="&#x3bc;" d="M 40.00-13.00l0.00,313.00 l 65.50,0.00 l0.00-99.50 q0.00-77.75 50.75-77.75q 27.25,0.00 40.75,22.00q 11.75,18.50 12.00,47.00l0.00,108.25 l 65.50,0.00 l0.00-229.50 l-60.50,0.00 l0.00,30.25 l-7.75,0.00 q-6.25-18.00 -20.50-27.25q-12.25-7.75 -27.00-7.50q-31.75,0.00 -45.50,32.75l-7.75,0.00 l0.00-111.75 l-65.50,0.00 z" horiz-adv-x="308.5" />
<glyph unicode="&#x2c9;" d="M 42.00,323.00l0.00,36.75 l 148.00,0.00 l0.00-36.75 l-148.00,0.00 z" horiz-adv-x="229.75" />
<glyph unicode="&#x2c6;" d="M 33.75,350.00l 39.00,60.50l 51.25,0.00 l 39.75-60.50l-21.00-19.00l-44.00,49.25l-43.50-48.00z" horiz-adv-x="198" />
<glyph unicode="&#x76;" d="M 10.25,297.75l 66.00-227.25l 56.75,0.00 l 66.75,227.25l-57.00,0.00 q0.00-9.75 -6.50-33.25l-30.25-111.50l-28.75,111.50q-7.25,26.50 -7.00,33.25l-60.00,0.00 z" horiz-adv-x="205.25" />
<glyph unicode="&#x77;" d="M 13.25,297.75l 60.00,0.00 q0.00-25.00 2.00-33.25l 24.50-101.75l 24.75,101.75q 3.50,13.75 3.50,33.25l 58.25,0.00 q0.00-11.75 2.75-33.25l 24.00-101.75l 25.00,101.75q 6.25,26.50 6.25,33.25l 56.75,0.00 l-56.25-227.25l-54.25,0.00 l-31.75,118.25l-29.75-118.25l-54.25,0.00 z" horiz-adv-x="308" />
<glyph unicode="&#x78;" d="M 9.75,297.75l 60.50,0.00 q 1.50-12.75 10.25-27.50l 23.00-41.00l 23.00,41.00q 8.75,17.50 10.75,27.50l 61.00,0.00 l-67.25-114.00l 66.00-113.25l-59.75,0.00 q-2.50,9.75 -12.25,32.25l-20.50,34.75l-21.50-36.75q-7.75-13.25 -10.75-30.25l-61.50,0.00 l 67.00,113.25z" horiz-adv-x="203.75" />
<glyph unicode="&#x79;" d="M 11.75,297.75l 59.00,0.00 q 2.00-7.75 7.50-31.25l 25.75-108.50l 26.00,107.00q 2.50,11.75 6.75,32.75l 59.25-0.50l-85.00-304.50q-6.75-23.50 -8.50-37.00l-61.00,0.00 l 33.75,114.75q-2.00,7.25 -7.25,26.00z" horiz-adv-x="202" />
<glyph unicode="&#x7a;" d="M 13.75,70.50l0.00,47.00 q 9.25,12.75 86.50,126.50l-45.00,0.00 q-21.50,0.00 -35.75-2.00l0.00,55.75 l 147.50,0.00 l0.00-46.50 q-9.25-14.25 -88.25-128.50l 56.00,0.00 q 21.00,0.00 34.25,1.50l0.00-53.75 l-155.25,0.00 z" horiz-adv-x="177" />
<glyph unicode="&#x7b;" d="M 18.50,177.00l0.00,50.25 q 31.75,1.50 45.00,24.50q 9.75,18.00 9.75,53.25l0.00,39.50 q0.00,46.50 22.00,67.50q 21.50,19.50 68.50,19.50l 18.50,0.00 l0.00-50.75 q-34.75,0.00 -43.25-9.75t-8.50-49.50q0.00-48.75 -6.00-68.75q-8.75-29.25 -40.50-50.75q 32.25-22.00 40.50-50.00q 6.25-20.00 6.00-69.25q0.00-40.00 8.50-49.625t 43.25-9.625l0.00-50.75 l-18.50,0.00 q-47.00,0.00 -68.75,20.25t-21.75,66.75l0.00,39.50 q0.00,35.25 -9.75,53.25 q-13.25,23.00 -45.00,24.50z" horiz-adv-x="193" />
<glyph unicode="&#x7c;" d="M 45.00-47.25l0.00,491.50 l 53.75,0.00 l0.00-491.50 l-53.75,0.00 z" horiz-adv-x="140.75" />
<glyph unicode="&#x7d;" d="M 14.75,23.50q 34.75,0.00 43.25,9.625t 8.50,49.625q0.00,49.25 6.25,69.25q 8.25,28.25 40.50,50.00q-31.75,21.50 -40.50,50.75q-6.25,20.00 -6.25,68.75q0.00,40.00 -8.375,49.625t-43.375,9.625l0.00,50.75 l 18.50,0.00 q 47.00,0.00 68.75-19.50q 22.00-21.00 22.00-67.50l0.00-39.50 q0.00-35.25 9.75-53.25q 13.25-23.00 45.00-24.50l0.00-50.25 q-31.75-1.50 -45.00-24.50q-9.75-18.00 -9.75-53.25l0.00-39.50  q0.00-46.50 -21.75-66.75t-69.00-20.25l-18.50,0.00 l0.00,50.75 z" horiz-adv-x="193" />
<glyph unicode="&#x7e;" d="M 13.75,166.75l0.00,59.00 q 42.50,36.25 77.50,36.25q 20.50,0.00 62.375-20.75t 60.875-20.75q 29.75,0.00 70.25,34.75l0.00-58.75 q-13.75-13.75 -35.875-24.875t-40.375-11.125q-20.50,0.00 -62.50,20.50q-43.50,21.50 -59.00,21.50q-30.25,0.00 -73.25-35.75z" horiz-adv-x="292.75" />
<glyph unicode="&#xa1;" d="M 24.00,262.00q0.00,15.75 11.75,27.875t 27.75,12.125q 15.75,0.00 27.375-11.875t 11.625-28.125q0.00-17.00 -11.375-28.50t-27.625-11.50q-16.50,0.00 -28.00,11.75t-11.50,28.25zM 32.25-43.25q 1.50,9.75 1.50,38.00l 1.50,209.50l 55.25,0.00 l 2.25-209.50q0.00-13.25 1.00-38.00l-61.50,0.00 z" horiz-adv-x="126.25" />
<glyph unicode="&#xa2;" d="M 11.75,181.00q0.00,37.50 17.375,68.50t 48.125,43.25l0.00,35.25 l 49.75,0.00 l0.00-29.25 q 21.00-3.00 43.00-14.25l0.00-54.25 q-21.50,18.50 -45.00,18.50q-24.50,0.00 -39.00-20.50q-12.75-18.00 -12.75-43.50q0.00-25.00 13.25-43.00q 14.25-20.00 38.50-20.00q 26.00,0.00 51.75,20.50l0.00-59.50 q-25.00-12.75 -49.75-15.25l0.00-33.25 l-49.75,0.00 l0.00,39.25 q-30.75,11.75 -48.125,41.25t-17.375,66.25z" horiz-adv-x="186.25" />
<glyph unicode="&#xa3;" d="M 18.00,117.50q 49.75,26.50 48.00,80.50l0.00,10.25 q-15.25,0.00 -45.50-1.50l0.00,57.75 q 2.00,0.00 36.25-1.00q-19.00,54.75 -18.75,73.25q0.00,36.75 27.00,58.75q 25.00,20.00 62.50,20.00q 33.75,0.00 74.25-16.75l0.00-58.00 q-33.75,20.00 -68.00,20.00q-33.25,0.00 -33.50-30.25q0.00-12.75 6.25-33.25q 5.00-17.00 10.25-33.25l 12.75,0.00 q 46.00,0.00 58.50,1.50l0.00-58.75 q-11.75,1.50 -58.50,1.50l-4.00,0.00 q 0.50-5.75 0.50-12.25q0.00-39.00 -28.75-69.75l 83.00,0.00  q 21.50,0.00 37.75,2.00l0.00-57.75 l-185.75,0.00 z" horiz-adv-x="229.25" />
<glyph unicode="&#xa4;" d="M 2.00,190.25q 2.00,15.75 4.25,33.75q 21.50-1.50 21.50,0.00q-0.50,25.00 -0.50,25.75q0.00,3.50 0.50,7.00l-17.00,0.00 l 4.00,34.00l 17.00,0.00 q 10.25,52.75 42.00,87.50q 34.75,38.50 83.00,38.25q 28.25,0.00 59.25-11.75l0.00-61.25 q-30.25,15.25 -53.25,15.25q-45.50,0.00 -64.00-68.00l 76.25,0.00 l-5.50-34.00l-75.75,0.00 q-0.50-3.50 -0.50-7.00q0.00-13.25 1.00-25.25l 69.50,0.00 l-4.50-33.75l-61.00,0.00 q 13.75-64.50 64.50-64.50q 16.50,0.00 28.25,4.25 q 3.50,1.50 25.00,12.25l 0.50-65.00q-36.25-11.25 -59.75-11.25q-106.00,0.00 -125.50,123.75l-29.25,0.00 z" horiz-adv-x="236.5" />
<glyph unicode="&#xa5;" d="M 6.25,390.50l 63.50,30.25q 8.25-31.75 28.00-73.75q 17.50-35.25 34.25-70.75q 18.00,35.75 35.50,72.25q 21.50,43.50 32.25,74.75l 59.75-32.75q-20.00-29.25 -85.50-152.00l 2.75,0.00 q 25.00,0.00 52.00,3.50l0.00-59.25 q-26.50,3.50 -58.25,3.50l-8.75,0.00 l0.00-47.25 q0.00-38.00 4.75-68.50l-71.25,0.00 q 4.00,35.25 4.00,67.00l0.00,48.75 l-6.50,0.00 q-28.75,0.00 -58.50-3.50l0.00,59.25 q 27.75-3.00 52.75-3.00l-49.50,98.25 q-17.00,33.75 -31.25,53.25z" horiz-adv-x="265.5" />
<glyph unicode="&#xa6;" d="M 45.00-10.50l0.00,167.50 l 53.75,0.00 l0.00-167.50 l-53.75,0.00 zM 45.00,240.00l0.00,167.50 l 53.75,0.00 l0.00-167.50 l-53.75,0.00 z" horiz-adv-x="140.75" />
<glyph unicode="&#xa7;" d="M 5.00,327.50q 0.50,4.00 5.25,7.25l 7.75,4.50l 13.25,1.00q 6.75,0.50 8.25,7.25q 1.50,2.00 3.00,4.375t 0.50,3.875q-4.00-3.50 -19.00-1.50q-3.50,2.50 -8.75,11.25q 5.00,1.00 15.00,3.50q 3.50,0.00 8.375-3.875t 7.375-4.375q 3.50,3.50 9.75,16.00l-8.75,2.50q-0.50,3.00 4.375,6.625t 4.875,5.125q0.00,2.50 -4.00,5.25q-0.50,3.50 2.50,4.50q 2.00-1.50 5.25-4.50q 1.00-7.25 2.50-7.25q 1.00,0.00 2.00,0.50q 5.00-1.00 8.75,6.75 q 13.75,6.25 14.25,6.00q 2.00,0.00 4.75-1.00l 1.50,2.00q 16.50-3.50 23.50-3.50q 8.75,0.00 14.75,3.50l 2.75,0.00 q 1.00-2.50 -1.625-5.875t-2.625-5.375q-2.00-0.50 -4.00-3.50q 4.00-3.50 4.00-9.75l0.00-11.75 q0.00-0.50 -1.00-9.75q-0.50-5.75 -4.00-8.25q 0.50-2.50 -2.375-6.125t-2.875-5.125q-5.00-4.50 -11.25-16.25q-3.00-4.50 -10.25-13.00q-0.50-3.00 1.50-7.50q 1.50,0.50 3.75,0.50q 2.00,0.00 5.625-1.875t 5.125-1.875 q 2.00,0.00 4.00,1.50q 6.75,6.25 21.50,18.00q 1.50-0.50 2.50,1.50t 2.75,2.00q 7.25,4.00 15.75,14.00q 7.75,7.75 15.00,15.75l 4.00,0.00 q 14.25,13.25 24.00,29.25q 9.75,11.25 12.25,15.25q 6.75,9.25 8.75,17.50q 1.00,1.00 4.625,8.50t 4.625,7.50q 1.50,0.00 1.50-8.75q-2.00-3.00 -2.75-9.75t-2.75-9.25q 0.50-4.50 -2.375-11.00t-2.875-10.00q 1.00,0.00 3.00-0.50q 0.50,2.50 4.875,5.875t 3.875,6.875l 5.25,2.50q 2.00-3.50 2.00-5.00q-2.50-1.50 -3.25-5.375 t-3.00-4.875q-2.50-16.50 -8.50-24.00q 1.00-2.00 2.50-2.25q 1.00,0.00 3.25,1.875t 3.25,1.875t 2.25-1.00q-3.00-2.50 -7.25-12.25q-4.00-7.75 -9.25-10.75q-1.00-5.00 -1.00-6.75q 2.50-2.50 3.50-2.00q 5.75,3.50 6.25,3.50q0.00-2.00 -2.375-4.625t-2.375-4.125q-10.25-9.75 -12.75-16.25l-2.75-1.00q-2.75-1.00 -2.25-3.25q 1.00-1.50 5.00-1.50q-0.50-6.25 -5.875-11.00t-10.375-9.00q-2.00-0.50 -5.75-3.50 q-1.00-2.50 5.25-5.00l 3.00,0.00 q-0.50-4.00 -8.00-6.375t-9.00-5.625q 4.00-2.50 1.50-7.00q 5.00-6.75 18.00-16.50q 1.00-3.50 6.375-8.625t 6.375-8.00t 6.375-8.00t 4.875-8.625q 3.50-2.50 6.125-8.625t 4.625-8.875q 1.50-6.75 6.75-15.25q 3.50-9.75 10.25-29.25q-3.00,0.00 -7.375,4.625t-6.875,4.625q-1.00-0.50 -1.00-2.00l0.00-3.00 q-0.50-1.00 -2.75-0.50q-1.00,0.50 -6.375,4.50t-8.875,3.50 q-4.50,3.00 -13.00,12.875t-15.75,12.375q-1.00,0.00 -3.50,1.75t-5.25,0.75q-1.50-0.50 -1.75-3.875t-2.25-3.875q0.00-2.00 2.25-5.125t 2.25-5.125q0.00-1.00 -1.00-2.50l-8.50,6.25q-3.00-2.50 -2.75-6.25l 1.00-1.00q-1.50-1.50 -0.50-4.00q 1.50-3.00 1.00-4.75q 2.00-18.50 10.25-53.25q 10.75-5.75 11.25-5.50q 3.50,3.00 14.00-2.25q 1.00-2.00 3.50-6.00q-3.00,3.00 -7.75,3.00q-2.00,0.00 -6.625-1.00t-6.625-1.00q-4.00,0.00 -6.75,2.50 q-2.00,0.00 -4.00-2.75t-3.75-3.00t-7.375-2.375t-9.375-2.125q-2.50,0.00 -4.50,1.00q-1.50,0.00 -3.125-0.50t-2.625-0.50t-2.50-1.00t-3.00-0.50q 2.00,6.75 11.25,7.75q 13.25,1.50 14.75,2.00q-1.50,1.50 -7.25,4.00q-5.00-2.50 -15.25-1.00l-7.75-1.50q-0.50,2.50 2.875,4.875t 3.875,3.375q 4.00,1.00 10.25-1.50q 4.50,0.00 8.75,3.50q 6.75,5.75 7.00,5.75q-1.00,12.25 -3.50,23.50q-2.00,9.25 -4.375,19.75t-6.875,17.00 q 0.50,1.50 -2.50,5.25l-6.25,1.00q-8.25,6.75 -19.50,23.00l-3.50-2.50q 4.00-10.75 1.50-17.50q-3.00,1.50 -8.25-0.50q-1.00-2.00 0.875-6.375t 1.875-5.875q0.00-2.50 -4.75-3.50q-3.00-3.00 -3.75-11.50t-2.75-11.75q 0.50-2.50 0.50-5.00q0.00-4.00 -2.875-11.75t-2.875-12.25l0.00-1.00 l0.00-0.50 q 10.25-10.75 21.50-9.75q 2.50-1.00 5.25-5.75l-7.75,0.00 q-3.00-2.50 -7.75,0.00q-3.00,3.00 -14.75,1.50q-1.00-0.50 -5.375-3.50 t-7.375-2.50q-0.50-2.50 -3.125-3.125t-5.125-0.375t-6.75-1.25l-6.50-3.00q 2.50,10.25 21.50,13.75l-6.25,2.75q-19.00,1.50 -25.00-2.75q 0.50,4.50 9.75,10.25q 3.50,1.00 13.25-2.00q 8.75,0.00 13.25,3.00q 4.00,6.75 6.25,19.00q 2.00,17.00 3.00,20.50q 1.50,7.25 0.00,19.00q0.00,6.75 -4.625,12.875t-8.625,12.125q-0.50,0.00 -2.625,2.125t-1.125,3.625q-7.75,11.25 -8.75,21.00q-33.75,24.00 -38.75,59.75q 1.00,18.50 5.00,34.50 q 2.00,0.00 2.875,2.25t 0.875,2.75q 11.25,12.25 26.50,16.50q 1.50,4.50 7.375,9.875t 7.625,9.875l 4.00,4.25q-1.00,1.50 1.00,4.50q 1.00,0.00 5.25,7.75q 0.50,3.00 -1.75,8.25q-2.00-1.50 -4.50-1.50q-2.00,0.00 -6.875,3.00t-7.375,3.00q-1.00,2.00 -4.375,2.75t-4.375,1.50q-4.00,1.00 -8.25,1.50q-5.00,1.00 -7.25-2.25q 0.50-2.50 -1.00-6.00t-1.50-4.75q0.00-2.00 1.50-4.00q 3.00,0.50 6.75-2.50q 4.00-4.50 5.50-5.25q 1.50-9.25 1.75-17.25 q-0.50-1.00 -3.75-4.25q-3.00-0.50 -5.625,4.125t-5.625,4.625q 0.50,1.50 -1.25,3.375t-1.75,2.875q0.00-0.50 0.00,6.50q0.00,4.50 -3.50,5.25q-4.50-5.75 -9.75-18.00q 9.25-12.25 8.50-16.25l-1.00-9.25q-0.50-4.50 -5.00-5.75q-7.25,15.75 -6.75,21.50q-4.50-0.50 -6.50-11.75l 2.00-9.25q 1.00-5.00 -2.00-8.75q0.00-3.00 -3.25-7.00l-3.00-4.25q-0.50-1.00 -3.50,0.50q0.00,3.00 -0.75,8.75t-0.75,8.25q0.00,5.75 3.00,9.25 q 1.00,1.50 5.50,5.50q 3.00,3.00 2.75,7.25q-1.50,1.50 -3.25,1.50q-1.00,0.00 -3.00-1.25t-3.50-1.25q-1.00,0.00 -2.75,1.00q-3.00-1.00 -5.00-1.00q-2.25,0.00 -5.25,1.00zM 58.25,381.75l 16.50-2.00q 1.50-0.50 2.25,0.75t 0.25,2.75l-15.25,1.00q-0.50-1.00 -2.125-1.00t-1.625-1.50zM 85.00,388.50q 4.00-7.75 8.75-4.25q 4.00,3.00 3.50,8.75q-7.25-1.00 -12.25-4.50zM 129.00,313.75q 1.50,6.25 10.25,13.75q 2.50,5.75 7.75,16.50q 2.00,3.50 6.00,11.75 q 3.00,1.00 4.125,5.625t 2.625,5.625q 3.00,7.25 6.25,22.50q 6.25,20.00 6.00,22.50l 1.50,17.00q 3.00-0.50 3.875-4.125t 1.375-7.125q 0.50-12.75 -1.50-24.25l-1.00-4.00l 4.00-1.00l 2.00,2.00q-0.50,9.25 3.00,26.50q 2.50-1.00 2.875-4.50t 0.875-4.00q-1.00-1.00 -1.00-3.25q0.00-2.00 1.00-3.00q-3.50-13.25 -3.75-20.00q 2.50-0.50 4.125,1.875t 3.125,4.375q 0.50-1.50 0.50-3.75q0.00-3.50 -3.00-9.50q-3.50-7.75 -5.00-9.75 l-3.75-6.25q-5.75,2.00 -6.25,1.50q-1.50-4.00 -7.125-9.875t-7.125-9.125q-16.50-16.75 -31.75-28.00zM 193.50,392.00q0.00,7.75 4.25,7.75q 0.50-0.50 -2.25-7.25z" horiz-adv-x="263.5" />
<glyph unicode="&#xa8;" d="M 34.25,376.75q0.00,11.75 8.75,20.125t 20.50,8.375q 12.25,0.00 21.00-8.375t 8.75-20.125q0.00-12.25 -8.75-20.75t-21.00-8.50q-11.75,0.00 -20.50,8.50t-8.75,20.75zM 118.75,376.75q0.00,11.75 8.50,20.125t 20.75,8.375t 21.00-8.375t 8.75-20.125q0.00-12.25 -8.75-20.75t-21.00-8.50t-20.75,8.50t-8.50,20.75z" horiz-adv-x="211.25" />
<glyph unicode="&#xa9;" d="M 42.50,252.75q0.00,69.75 38.00,123.50q 42.00,60.50 109.00,60.25q 67.00,0.00 109.00-60.25q 38.00-53.75 38.00-123.50t-38.00-123.25q-42.00-60.50 -109.00-60.50t-109.00,60.50q-38.00,53.50 -38.00,123.25zM 66.00,252.75q0.00-58.25 31.75-104.00q 35.25-50.75 91.75-50.50q 56.25,0.00 91.50,50.50q 32.25,45.50 32.25,104.00q0.00,58.25 -32.25,104.00q-35.25,50.25 -91.50,50.25t-91.75-50.75 q-31.75-45.25 -31.75-103.50zM 108.50,257.50q0.00,44.50 24.00,78.75q 26.00,38.00 66.75,37.75q 19.50,0.00 41.50-8.00l0.00-43.00 q-21.00,10.75 -37.50,10.75q-22.50,0.00 -36.25-27.25q-12.25-22.50 -12.50-49.00q0.00-86.50 48.75-86.75q 14.25,0.00 37.50,11.25l 0.50-45.00q-25.50-8.25 -42.00-8.25q-90.75,0.25 -90.75,128.75z" horiz-adv-x="334.75" />
<glyph unicode="&#xaa;" d="M 17.00,314.25q0.00,22.00 15.75,35.25q 14.25,12.25 36.25,12.25q 10.75,0.00 20.00-2.50l0.00,3.00 q0.00,19.50 -22.00,19.50q-14.25,0.00 -34.25-7.00l0.00,31.00 q 24.00,6.25 38.50,6.25q 29.75,0.00 41.00-12.25t 11.25-42.00l0.00-65.00 q0.00-13.25 1.00-18.50l-34.00,0.00 l0.00,11.25 q-14.75-13.75 -32.25-13.75q-18.50,0.00 -29.875,12.25t-11.375,30.25zM 52.75,317.25q0.00-13.75 14.75-13.75q 21.50,0.00 21.50,19.50l0.00,8.00 q-8.25,2.00 -14.75,2.25q-21.50-0.25 -21.50-16.00z" horiz-adv-x="141.25" />
<glyph unicode="&#xab;" d="M 20.50,193.50l 53.75,87.00l 26.50-14.50l-29.50-74.25l 29.50-72.50l-28.00-12.50zM 83.50,193.50l 54.25,87.00l 26.00-14.50l-29.00-74.25l 29.00-72.50l-27.50-12.50z" horiz-adv-x="184.25" />
<glyph unicode="&#xac;" d="M 26.50,243.00l0.00,58.00 l 245.25,0.00 l0.00-167.50 l-57.25,0.00 l0.00,109.50 l-188.00,0.00 z" horiz-adv-x="292.75" />
<glyph unicode="&#xad;" d="M 26.50,209.75l0.00,62.50 l 235.75,0.00 l0.00-62.50 l-235.75,0.00 z" horiz-adv-x="287" />
<glyph unicode="&#x20;" horiz-adv-x="256" />
<glyph unicode="&#xae;" d="M 42.50,252.75q0.00,69.75 38.00,123.50q 42.00,60.50 109.00,60.25q 67.00,0.00 109.00-60.25q 38.00-53.75 38.00-123.50t-38.00-123.25q-42.00-60.50 -109.00-60.50t-109.00,60.50q-38.00,53.50 -38.00,123.25zM 66.00,252.75q0.00-58.25 31.75-104.00q 35.25-50.75 91.75-50.50q 56.25,0.00 91.50,50.50q 32.25,45.50 32.25,104.00q0.00,58.25 -32.25,104.00q-35.25,50.25 -91.50,50.25t-91.75-50.75 q-31.75-45.25 -31.75-103.50zM 124.50,145.25q 1.50,13.75 1.50,31.25l0.00,158.25 q0.00,23.50 -1.50,31.75l 49.50,0.00 q 37.50,0.00 60.50-20.75t 23.00-52.50q0.00-36.25 -27.50-65.00l 19.25-58.50q 4.00-12.25 10.25-24.50l-44.50,0.00 l-16.25,59.00q-7.75-4.00 -16.00-7.25l-16.25-9.25l0.00-11.25 q-0.50-23.50 1.50-31.25l-43.50,0.00 zM 166.50,231.25q 19.50,7.25 33.75,22.50q 16.50,17.50 16.25,37.00q0.00,18.50 -12.75,29.50q-11.75,9.75 -28.75,9.75l-8.50,0.00 l0.00-98.75 z " horiz-adv-x="334.75" />
<glyph unicode="&#xaf;" d="M 42.00,323.00l0.00,36.75 l 148.00,0.00 l0.00-36.75 l-148.00,0.00 z" horiz-adv-x="229.75" />
<glyph unicode="&#x21;" d="M 24.00,106.75q0.00,17.00 11.25,28.50t 28.25,11.50q 15.75,0.00 27.375-11.75t 11.625-28.25q0.00-15.75 -11.875-27.75t-27.125-12.00q-16.50,0.00 -28.00,11.625t-11.50,28.125zM 32.75,412.00l 61.50,0.00 q-1.50-9.75 -1.50-38.50l-1.50-208.75l-55.50,0.00 l-1.50,208.75q0.00,13.50 -1.50,38.50z" horiz-adv-x="126.25" />
<glyph unicode="&#xb0;" d="M 21.50,363.25q0.00,33.25 23.25,56.625t 56.75,23.375q 33.25,0.00 56.50-23.25t 23.25-56.75q0.00-33.25 -23.25-56.50t-56.50-23.25q-32.75,0.00 -56.375,23.50t-23.625,56.25zM 60.00,363.25q0.00-17.50 12.00-29.375t 29.50-11.875t 29.375,12.00t 11.875,29.25q0.00,17.50 -12.00,29.50t-29.25,12.00q-17.50,0.00 -29.50-12.00t-12.00-29.50z" horiz-adv-x="202.75" />
<glyph unicode="&#xb1;" d="M 5.00,196.00q 5.00,6.25 18.50,19.00l-1.00,0.50q 1.00,4.00 1.00,8.50t-1.00,8.25l 1.00,24.00l0.00,26.75 q-6.75,5.75 -17.75,18.50q 1.50,4.50 7.50,10.25q 9.75,8.75 10.25,9.00l-1.50,18.00q0.00,4.00 0.50,11.25q-0.50,1.50 1.00,5.25q-0.50,1.00 -1.00,34.25l-17.50,19.00q 5.75,6.75 17.50,18.75q 5.75-6.75 18.50-17.75q 4.50,0.00 14.25-1.00q 1.00,2.00 3.875,1.25t 3.875,0.25q 1.00,0.50 4.00-0.50l 32.25,0.00 q 2.50-1.00 7.75,1.00l 14.75,16.75l0.00,1.75 l 1.75,0.00 l 16.75-19.00q 7.75,0.00 23.50-0.50q 2.00-0.50 6.25,0.50 q 3.00,0.00 10.25-0.50q 2.00,0.50 6.75,0.00q 0.50,0.50 2.00,0.50l 1.00-0.50q 3.00-0.50 9.75,0.50q 1.50,0.50 4.00-0.50l 3.50,1.00l 15.50,17.50l0.00,1.00 q 0.50,0.00 3.50-3.25l 12.25-12.25l 3.75-4.00q 2.50-1.00 6.50,0.50q 3.00,0.00 10.25-0.50q 2.50,0.50 5.75,0.00q 1.00-0.50 2.50,0.50q 1.50,0.00 5.25-0.50q 1.00-0.50 3.00,0.50q 3.00-1.00 6.50,0.00l 0.50-0.50q 1.50-1.00 4.75,0.50q 2.50,0.50 7.75-0.50q 3.00-0.50 7.50,0.50q 2.50-2.00 5.75,0.00q 4.00,3.00 16.75,19.00q 3.50-5.00 13.00-13.50q-0.50-1.00 0.75-2.50 t 1.25-1.75t 3.50-2.75q-5.75-6.75 -17.75-19.00q0.00-15.25 -0.75-42.50q0.00-0.50 0.75-21.00q-0.50-1.50 -0.75-2.50q0.00-2.50 3.875-5.625t 4.375-5.625q 4.00-3.50 9.25-10.75q-4.50-4.50 -11.75-13.50l-0.50,1.00q-7.25-8.75 -4.50-13.75l 0.50-0.50q0.00-2.50 -2.25-6.00q0.00-3.00 1.75-9.25l 0.50,1.00q0.00-3.50 -1.25-9.25l 1.25-1.50q-1.50-0.50 -1.25-2.00q 1.00-1.50 0.00-2.25q 0.50-10.25 0.75-9.50q 1.00-1.00 0.00-2.25q-0.50-1.50 0.50-2.00 q 0.50-3.00 -1.25-9.25q-0.50-3.50 3.75-10.25l0.00-1.50 q 4.50-5.00 16.25-14.75q-3.50-2.00 -8.50-7.75q-1.00-1.00 -3.75-2.50l 0.50-1.00q-1.50,0.00 -2.00-0.50l 0.50,0.00 l0.00-0.50 l-0.50,0.00 q-1.00-1.00 -2.75-3.375t-2.75-3.375q 1.00-1.00 0.00-3.50q-0.50-2.50 0.50-4.25q-1.50-9.75 -0.50-16.75l 0.50-0.50q-0.50,0.00 -1.25-1.00q0.00-1.50 0.375-1.625t 0.875-6.125q-2.00-9.75 0.50-13.25q-1.00-1.00 -1.00-6.25q-0.50-4.00 0.50-11.75l0.00-2.00 l 16.75-17.50 q 0.50-0.50 2.00-0.50q-3.00-3.50 -11.25-10.25q-2.00-2.00 -5.50-6.75l-2.50-2.50q-5.00,5.75 -10.75,11.875t-13.00,7.125l-0.50-1.00q-2.50,0.00 -7.50,1.00q-1.50-1.50 -5.875-0.50t-6.125-1.00l-1.50,1.50q-3.00-0.50 -8.375-0.50t-14.125-1.00q-1.50,0.50 -4.50,0.50l-11.25,0.00 q-5.00-6.75 -17.00-18.50l-1.00,0.00 l-17.00,18.00q-9.25,1.00 -17.75,1.00q-8.75,0.00 -17.50-1.00l-29.25,0.50l-17.75-19.50l-5.75,5.75l-13.25,13.75q-14.25,0.50 -43.00-0.50 q-0.50,1.00 -3.00,0.00l-17.00,1.50q-4.50-2.50 -10.75-10.00t-8.75-9.50l0.00-1.50 l-1.50,0.00 q 0.50,1.00 -1.50,2.50l-0.50,0.00 l 0.50,0.50q-5.75,5.75 -13.75,18.50q 5.00,6.25 16.75,17.50l0.00,67.50 zM 30.75,127.25q0.00-1.00 0.75-3.25t 1.75-8.00l-1.00-0.50q 1.00-6.75 4.00-6.50q 1.50,0.00 3.75,2.50l 2.00,2.50q-1.00,1.00 -3.50,3.00q-0.50,1.00 0.50,3.75q-1.50,1.00 0.50,8.00q-1.50,0.00 -4.75,2.25q-0.50,0.00 -2.25-1.125t-1.75-2.625zM 31.25,370.00q 1.00-3.00 3.50-2.00q 3.50,1.50 4.25,1.50 q 0.50,1.50 -1.125,3.875t-1.625,3.375q 2.00,1.00 1.625,2.25t 4.125,7.00q-4.50,5.00 -7.25,4.50q-1.00-6.75 -3.50-20.50zM 33.75,153.00q-1.00-4.50 2.50-7.75q 2.00-2.50 7.25,0.50l-2.00,6.75l-1.00,4.00q-0.50,2.50 1.00,3.50q 1.50-1.00 2.25-3.50t 2.25-8.75q 6.25,2.00 6.25,5.25q0.00,1.00 -2.00,3.50t-1.50,4.50l-7.75,11.00q-2.00,2.50 -4.75,8.50l-1.50-1.50q0.00-0.50 -0.50-15.25l0.00-9.75 zM 34.25,239.50q 0.50-2.00 0.50-7.25q 1.00-7.25 4.75-20.50l 4.00-15.75 q 1.50-1.00 1.00-3.25q 3.50-6.25 9.25-18.25l 13.25-19.00q0.00-0.50 5.75-7.25q 3.50-5.00 13.75-11.25q 4.00-6.75 13.75-12.25q 13.75-7.75 16.50-10.25q 4.00,0.00 6.75-2.50q 2.50,0.00 8.875-2.875t 10.375-2.375q 1.50,1.00 3.25-0.50l 1.50,0.00 q 1.00-1.00 0.50-1.50q 2.00,0.50 6.50-1.00l 8.25,0.00 q 2.00-1.00 13.50,0.00q 4.00-0.50 10.75-1.00q 0.50,1.00 2.00,1.00l 11.25,1.00q 2.00,1.50 5.00,1.50q 32.75,9.75 63.00,34.50l-0.50,0.50q 2.00,3.00 8.25,7.00l0.00,1.50 q 26.50,30.75 35.75,70.75 l 3.75,26.75l0.00,2.50 q0.00,1.00 -0.625,1.75t-0.625,1.75q 0.50,0.50 1.25,3.00q0.00,0.50 -1.125,4.375t-0.625,5.875q-2.50,3.00 -2.00,6.75l-2.00,14.25q-0.50,0.00 -1.50,0.50q 1.00,2.00 0.00,5.25q-1.50,3.00 -1.00,4.50q-3.00,10.25 -13.25,28.25l 0.50,0.50l-5.25,7.25q-2.50,4.00 -8.75,11.75q-7.75,11.25 -43.50,35.75q-35.75,15.75 -60.75,16.00q-9.25,0.00 -17.50-1.75q-21.00-0.50 -45.00-13.25q-5.75-2.50 -16.50-10.25q-3.50-2.50 -11.75-7.50l-17.00-17.00 l-14.25-21.50q-9.75-14.75 -18.00-50.75q-2.50-18.25 -2.00-35.75zM 34.25,351.00q-0.50-7.25 1.50-22.00q-3.00-2.50 0.00-8.75l 7.25,8.75q0.00,4.00 4.875,9.25t 3.875,10.25q-1.50,0.00 -4.25,1.00l 0.75,0.50l-0.75,0.50q-2.00-5.00 -7.50-13.25l-1.00,1.00q 1.00,5.00 5.00,13.75q-1.50,3.00 -4.50,2.75q-3.75-0.75 -5.25-3.75zM 35.75,138.00l 1.00-4.50q 2.00-2.00 3.25-2.00q 0.50,0.00 2.00,3.00t 3.00,3.25t 3.75,0.25q 4.50,1.00 5.00,0.00l 1.50,2.25 q 0.50,2.50 -1.50,5.00q0.00,2.00 -1.50,1.50q-3.00-1.00 -3.50-1.00q-4.75-2.00 -13.00-7.75zM 35.75,361.25q 1.50-2.00 5.75-3.50q 11.25-4.50 10.25-4.75q 2.00,0.00 3.50,1.75q0.00,4.00 -1.50,7.00q-1.00-1.50 -2.50-1.50q-1.00,0.00 -3.125,1.25t-3.125,1.25t-1.50-0.50q-0.50,0.00 -1.25,1.125t-0.75,1.625q0.00,1.00 0.50,2.00l-0.50,0.50l-4.75-2.25q-2.50-1.50 -1.00-4.00zM 39.50,104.25q 2.50-3.50 8.75-3.00q 4.50-2.00 12.25,0.00q-1.00,2.50 -2.25,7.25 q-2.00-1.00 -6.50-2.75q-0.50,0.50 -0.50,1.00q-3.50-1.50 -6.75,4.25q-2.50-1.00 -5.00-6.75zM 40.00,392.00q 1.50-1.50 4.50-3.50q-0.50,1.00 0.00,3.00l 7.75,1.00q 4.50,1.00 6.75-2.00q 2.50,5.00 2.00,7.75l-2.00,2.00q-2.00,0.00 -7.25-1.25t-8.75-1.00t-3.00-6.00zM 41.00,123.25l 5.50,0.00 l 2.75,5.50q-1.00,5.00 -2.75,5.25q-1.00,0.00 -2.75-5.125t-2.75-5.625zM 41.50,118.00q 5.00-1.50 4.50-2.00l 1.50-1.50q-1.00-0.50 -1.00-1.00l 1.00,0.00 q 1.50-1.50 1.25-2.50l 1.50,0.00  q-0.50,1.00 0.00,2.50q 1.00,1.50 0.50,2.50l-0.50,0.00 q-3.00,4.00 -2.75,4.75q-2.50-0.75 -6.00-2.75zM 41.50,374.00q 1.50-3.00 4.50-8.50q 2.50,2.00 3.25,5.50q-5.00,5.75 -7.75,5.25l0.00-2.25 zM 41.50,380.75l 1.50-1.50q 5.75-1.00 8.25,3.00l-1.00,6.25l-1.50,0.00 q-0.50-0.50 -0.50-1.00t 0.50-1.00q-3.25-1.75 -7.25-5.75zM 42.00,240.50q 2.00,0.00 8.75,1.50q 5.75,0.00 17.25,2.00l 2.75,0.00 l 0.50-5.00q-5.00,0.00 -15.50-11.25q 1.50,0.50 5.625,1.00t 11.875,0.50l0.00-4.75  q-10.75-2.50 -11.00-2.25t-2.25-0.75q-10.25,0.00 -14.00-3.00q 0.50,1.00 -0.75,3.50t-1.25,3.00q0.00,1.50 2.50,2.25l 2.25,2.00l 3.00,2.50l 4.00,4.25q-2.00,0.00 -6.375-0.875t-5.875-0.375q-0.50,1.75 -1.50,5.75zM 43.00,253.25q-1.00,7.75 3.50,11.75q 1.50,0.00 4.25-1.00q 0.50,1.00 2.50,0.00q-0.50-0.50 -2.50-3.00t-2.00-4.25q0.00-3.50 11.75-6.00q 2.00,0.50 5.00,2.50q0.00,1.50 -0.50,3.375t-4.00,2.875l 0.50,4.50q 2.50,0.00 9.25-0.50l-2.75-3.00 q 5.75-4.50 0.50-11.25q-2.00-1.00 -5.50-3.75q-1.00-0.50 -3.00,0.00l-2.25,0.00 q-2.00-0.50 -6.00,0.50q-5.75,1.50 -8.75,7.25zM 44.50,273.25q 1.00,4.00 3.00,13.25q 1.00-1.50 5.75-1.50q-1.50-2.50 -2.00-9.25q 5.00-0.50 5.00,0.00l 1.50,4.75q 1.00-0.50 4.25-0.50q0.00-2.00 -0.50-5.25q 1.00-1.00 4.50-2.00q 2.50,3.00 2.00,8.25q 3.00-1.00 6.25-1.50q0.00-3.50 -2.00-5.75l0.00-7.25 q-7.75,1.50 -22.00,4.25q-0.50,0.50 -3.75,0.50zM 48.25,213.25q 6.75,2.50 20.25,6.25 q 6.75,3.00 6.75-1.50l0.00-2.50 l-0.50,0.50l-24.00-8.25l-0.50-0.50q-0.50,2.00 -2.00,6.00zM 49.25,292.25q 1.00,3.00 2.50,6.50q 4.00,0.50 13.75,3.75q-6.75,4.50 -11.25,4.50l 2.00,6.25q 10.75-4.00 19.00-9.25q 4.50-1.00 7.25-3.50q-0.50,0.00 -0.50-2.875t-2.25-2.375q-4.00,4.50 -5.50,3.50q-0.50,0.00 -4.875-1.25t-6.375-1.25l-3.00-1.00q 6.25-2.50 17.25-8.25q-0.50-2.00 -2.50-4.50q-6.25,3.00 -11.75,6.00q-7.25,3.50 -12.25,3.75l-1.50,0.00 z M 50.75,136.00q-1.00-1.00 2.00-6.00q 1.00,0.00 5.00-1.25q 1.00,1.50 2.75,5.25l-2.75-1.00q-1.00,1.00 -0.50,1.00q-2.50,0.00 -6.50,2.00zM 50.75,364.00q 3.50,0.50 9.75,2.50l-2.75,3.50q-2.00,0.00 -6.00-1.00q0.00-1.00 -1.00-2.50q-1.00-2.00 0.00-2.50zM 51.25,378.25l 0.50,0.50l-0.50,0.00 l0.00-0.50 zM 53.25,109.50l 9.75,5.00l0.00,1.50 q-1.00,0.50 -2.00,0.50t-2.00-0.50l-0.75,1.00q-1.00-1.00 -4.50-1.00q 0.50-2.00 -0.50-6.50zM 53.25,122.75l 0.50,0.00 l0.00,1.00 zM 53.25,376.75l 0.50-1.50l 0.50,1.00 q-0.50,0.50 -1.00,0.50zM 53.75,383.25l 6.25-2.50l 3.50,3.50q-3.00,2.00 -9.75,5.25q 0.50-1.75 0.00-6.25zM 55.25,191.25q 8.25,3.00 12.75,7.75l 10.25,6.25l 3.75-4.75q-3.00-1.50 -11.75-7.00q 4.00-1.50 10.75,1.50q 2.00-4.00 2.00-3.75l-6.25-8.00q 4.00-1.50 8.75,4.50q 1.50,1.00 4.50-3.00q 1.00,0.00 1.25-1.50q-9.75-4.50 -19.00-11.25l0.00-1.25 q-0.50,0.50 -2.00,0.50q-1.00-1.00 -2.75-3.50q-1.50,2.00 -4.00,5.75l0.00,1.00 q 1.50,0.00 2.25,1.75t 2.375,3.00t 2.125,4.00 q 0.50,0.50 2.50,3.00q0.00,0.50 -4.25,0.00l-10.25-1.50l0.00-0.50 q-3.50,2.50 -3.00,7.00zM 55.25,379.25l 0.50-0.50l0.00,0.50 l-0.50,0.00 zM 55.75,126.25l 1.00,0.00 l0.00,1.00 l-1.00,0.00 l0.00-1.00 zM 55.75,374.00l 0.50-0.50l0.00,0.50 l-0.50,0.00 zM 57.25,138.00q 3.50,1.00 6.25-2.50q-0.50,0.50 2.00,4.75q 1.00,2.00 -0.75,3.00t-3.25,2.00q-2.00,0.00 -3.25-2.50zM 57.75,361.75q-0.50-4.50 2.25-7.50q 2.00-0.50 5.50,2.50q 0.50,2.50 4.875,6.125t 4.375,6.625q-2.50,1.00 -7.25,2.50l-0.50-5.50 q-6.75-4.75 -9.25-4.75zM 59.00,127.25l 1.00-6.00q 1.50-1.50 5.50-1.00l-1.00,1.00q-0.50,0.50 0.50,1.50l-0.50,0.00 q0.00-1.00 -1.00-2.00q-1.00-0.50 -2.50,1.00q0.00,1.50 0.50,4.00q 1.00-1.00 3.00,0.00q-0.50,1.50 -1.00,5.25l-1.00-1.00l 1.00-1.75l-2.00-2.00q-0.50,0.50 -2.50,1.00zM 59.00,372.50q 1.00,0.00 2.00-2.00t 2.50-1.50q 0.50,1.00 1.00,3.00q-1.50,1.50 -0.50,4.25q 1.50,2.50 1.50,3.50q-2.00-1.00 -5.50-1.50q0.00-0.75 -1.00-5.75zM 60.50,318.25l 2.50,5.25q 7.75-5.00 23.50-14.50 q-0.50-2.50 -2.50-4.50q-1.50,0.50 -9.75,5.50q-0.50,0.50 -13.75,8.25zM 61.50,109.00q 3.00-5.75 5.50-5.25l 7.75,15.50q-1.00-1.00 -3.50,0.00q0.00,1.50 2.00,4.00q 0.50-0.50 2.00-0.50l-2.00,2.00q-1.00,0.00 -3.00-1.00q-2.50,1.00 -2.75-0.50q0.00,1.00 0.50-3.00q 0.50-2.00 -1.00-3.25q 0.50-1.00 0.50-2.00q0.00-2.00 -2.75-3.25t-3.25-2.75zM 61.50,389.00l 4.50-2.50q0.00-2.50 2.00-5.75q0.00-1.50 -0.50-5.50l 6.75-0.50q 1.00,1.50 1.00,3.00t-1.75,4.875t-2.25,4.375 l-3.75,8.50q-2.50,0.75 -6.00-6.50zM 65.50,328.50q 0.50,1.50 3.00,4.75q 3.50-3.00 10.75-7.75q 4.00-2.50 12.50-9.25l-2.75-4.00q-8.25,5.50 -23.50,16.25zM 67.00,127.75q 1.50,0.00 1.50,0.50l 1.25-0.50q 4.00,1.00 5.00,3.75l-4.50,4.50q-0.50-1.00 0.75-1.75t 1.75-1.25q 1.00-2.50 0.00-3.00q-1.50-1.00 -2.75,1.00l-1.50,2.00l-1.50-0.50q-0.50-1.50 0.50-3.75q-1.00-0.50 -0.50-1.00zM 67.00,136.00l 1.50,2.00l-1.50,1.50l0.00-3.50 zM 70.25,162.75l0.00,2.00 q 1.00-0.50 2.50,0.00l 0.50-0.50 q 6.75,5.00 19.50,17.25l 4.00-4.00q-7.25-6.25 -21.00-18.50l0.00-2.00 zM 73.25,109.50q-0.50-2.00 1.50-4.375t 3.00-1.375q 3.00-2.00 9.00-0.75t 8.50-0.75q 4.00,0.00 11.75,1.50l-3.50,5.25q-2.00-0.50 -4.125,1.50t-4.125,2.50q0.00,0.50 -2.625,1.25t-1.375,2.25q-3.00,2.00 -10.25,4.75q-2.00,0.00 -2.375-2.375t-1.875-2.875q 2.00-2.00 6.25,0.00l 1.50-1.50q-0.50,0.00 -0.50-1.50q 1.50-1.00 3.50-3.50q-6.75,0.00 -12.25,3.50zM 74.25,394.00 q-0.50,0.00 0.50-7.50q 1.50,1.50 6.125,2.25t 5.125,1.25t 1.00,0.50q 0.50-0.50 0.50-2.00q-8.25-2.50 -10.75-6.25q 0.50-1.50 3.00-5.00q 3.00,2.00 10.25,4.50q 0.50,3.00 4.125,3.875t 4.625,1.375q 3.50,2.50 9.25,8.50q-4.50,2.50 -9.625,1.25t-13.375,1.00q-3.50-0.25 -10.75-3.75zM 78.25,345.00q 2.50,1.50 5.75,5.50q 4.50-0.50 12.75-3.50q 1.00-0.50 2.50,0.00q-3.50,3.00 -8.00,9.25q 3.50,6.75 3.50,4.00q 7.25-7.75 18.50-22.50l-4.25-4.00 q-1.00,2.50 -5.00,6.00q-4.00,1.50 -12.25,1.50q 3.50-4.50 11.75-12.75l-4.25-4.00q-7.25,9.25 -21.00,20.50zM 79.75,236.00l0.00,9.50 q0.00,19.50 2.75,27.75l 1.50,4.00q 4.00,21.00 21.00,41.50q 6.75,6.25 20.00,16.50q 26.00,15.25 52.25,14.75q 11.25,0.00 30.50-7.00l 0.75,0.50l 5.50-2.75q 2.50-1.50 8.25-5.50q 18.50-9.75 35.75-39.00q 3.00-7.25 7.75-22.50q0.00,0.50 1.25-4.375t 0.75-15.125q0.00-3.00 1.00-9.75q0.00-7.75 -3.00-22.00t-21.00-38.75 l-18.00-17.00q-2.50-1.50 -7.50-5.00q-23.00-9.25 -36.00-11.50q-3.00-0.50 -9.25,0.00q 6.75,3.50 19.00,12.00l 17.00,17.25q 5.75,7.25 14.75,23.00q 0.50,0.00 1.50,0.50l0.00,2.25 q 1.00,2.50 4.75,7.50q-0.50,2.50 1.75,6.125t 2.25,5.625q-1.00,0.50 0.25,1.875t-0.25,1.875q 2.50,4.00 3.00,10.75q 0.50,10.25 1.00,11.75q0.00,10.25 2.25,31.25q0.00,3.00 -0.50,9.75q-0.50,3.50 0.50,10.75q-1.00,3.00 0.00,9.25q0.00,2.50 -1.75,7.50l-132.50,0.00 q0.00-6.75 -0.50-18.75l-0.50-3.75l 2.00-44.00 q 1.00-23.50 10.25-42.00q 3.00-7.75 11.75-20.00q 1.00-1.50 2.00-4.50l 17.00-18.50q 10.75-11.25 24.00-16.75l0.00-1.25 q-2.50,1.00 -3.50,0.50q-3.00,1.00 -9.25,0.00l0.00,0.75 q-28.25,4.50 -51.75,26.50q-1.50-0.50 -1.50,1.00t-0.50,2.00q-3.50,4.00 -11.25,13.00q0.00-0.50 -3.00,5.00q-7.50,13.50 -12.50,37.50zM 85.00,145.75q 5.75,6.25 15.75,19.50l-6.50,5.50q 2.00,4.50 4.00,4.75q 2.00,0.00 5.375-4.625t 4.875-5.625q-3.00-2.50 -7.125-7.875 t-11.375-16.125q-2.00,4.00 -5.00,4.50zM 97.75,140.75q0.00,1.50 0.50,4.50q 2.50,4.50 5.875,9.875t 8.125,6.625q 8.75-3.00 8.50-9.75q0.00-3.50 -3.50-9.25t-4.00-7.75l-1.00-1.00l-1.75-1.00q-4.00-1.00 -10.75,2.50q-1.00,0.75 -2.00,5.25zM 100.75,364.50q 3.00,2.50 9.75,6.50q 1.50,0.50 2.125-1.25t 1.125-3.25q-1.50-0.50 -4.75-2.50q-0.50-3.50 2.00-5.25q 1.00,0.00 2.125,1.25t 2.625,1.25q 1.00-2.00 2.50-5.50q-1.00,0.00 -2.00-1.375 t-2.00-1.375q 0.50-2.00 2.50-5.00q 1.00,0.00 3.625,1.50t 3.625,1.50q 2.00,0.00 2.50-3.50q-3.50-2.00 -9.75-7.25l-2.00,0.00 q-4.25,8.50 -14.00,24.25zM 104.50,141.75q0.00-1.50 0.50-3.25q 3.00,1.00 5.125,4.625t 4.125,6.625q-0.50,3.00 -3.75,4.25q-0.50-1.50 -3.25-5.625t-2.75-6.625zM 118.75,371.00q 2.50,7.25 11.25,8.25q 0.50-2.00 2.50-6.75q-3.00,1.50 -6.00,0.00q-0.50-1.50 -2.50-5.00q 5.00-11.25 9.75-10.75q 1.50,0.50 2.25,2.50t 2.25,2.00 q 0.50-1.50 2.50-5.50q-3.00-3.00 -7.75-5.75q-7.25,0.00 -12.75,12.25q-1.50,3.00 -1.50,8.75zM 120.75,122.75l 2.75,5.50q 1.50-0.50 4.50-2.00q 1.50,5.00 6.75,15.00q 1.00,2.50 1.50,7.00l 6.00-2.50q-3.50-5.00 -5.00-12.75q-0.50-3.00 -4.25-7.75q-1.00-2.50 5.75-2.50q0.00-1.50 -1.50-4.75l0.00-1.00 q-3.00,0.50 -8.25,2.875t-8.25,2.875zM 121.75,274.75q 1.50,4.00 6.25,5.75q 1.00,0.00 2.50,0.50l 2.50-0.50q 2.50,2.00 2.25,4.50q-1.00-0.50 -2.75,0.00 q-0.50-1.00 -3.00,0.00q-3.00,2.50 -4.00,5.75q 1.50,1.00 3.50,1.00q 4.50,0.00 7.25-2.75q 1.00-0.50 2.25,1.875t 1.75,2.375q 0.50,1.50 -1.00,1.75t-1.50,1.25q 2.50,2.50 3.50,1.50l-3.00,4.25q 0.50,0.50 1.00,2.00q 1.00,0.50 3.50-2.00q0.00-1.50 0.50-2.00q 1.00-0.50 3.75,0.00q 6.25,5.00 8.25,5.00q 9.75-3.50 14.75,1.00q 1.00-1.00 0.00-2.50q-1.00-2.00 -1.00-3.00l-2.00-1.75q0.00-2.00 2.00-6.50q 0.50-7.25 -7.75-17.50q-2.00-2.00 -4.00-6.50q0.00-1.00 0.50-2.75q 1.00,1.00 4.50-0.50 q 4.00,2.00 10.75,7.25q-0.50,0.00 2.00,2.50q 1.00,1.00 2.875,2.625t 3.875,3.625l 3.50,4.00l 8.25,8.75q 3.00,7.25 11.75,21.00l 1.00,0.00 q0.00-9.25 -3.50-17.00l 0.50-0.50q 1.50,2.50 5.25,6.75q 2.50-4.50 -0.75-6.75q-0.50-7.25 -3.00-10.25q 1.50,0.50 4.75,0.50q-2.50-4.50 -9.25-12.25l 2.50,0.00 l 2.50,2.50q 0.50-2.50 -3.00-6.625t-4.375-5.375t-0.125-1.75l 0.50-0.50l 2.00,1.50q-2.50-6.75 -8.75-10.75q 1.50-1.50 4.00,0.00q0.00-2.50 -3.50-3.50 t-2.00-4.75q 1.50-2.00 5.50-6.00l0.00-1.50 q 4.50-7.25 14.50-20.00q0.00,0.50 2.50-7.75l 2.50-8.25q-1.00-0.50 -2.75,1.375t-2.25,1.875q-1.00,0.00 -2.25-2.25q-5.75,3.50 -14.75,13.50q-2.00,1.00 -4.50-1.00q 0.50,1.00 1.50-5.75q-1.50-0.50 -2.875,0.75t-1.875,1.25l-1.50-1.50q 0.50-8.75 6.25-25.00l 4.00,0.50q 1.00-2.00 4.375-2.00t 4.375-1.00l 1.00,0.00 l-0.50-1.25q 0.50,0.00 1.50-4.50q-4.00-3.50 -6.00-3.50q-6.25,2.00 -10.75,9.25l-1.75-1.75l-0.50-7.50 l-14.75,1.00q0.00,0.50 -5.50,6.00q-3.00,3.00 -6.75,2.25l-3.00-4.75l 3.50-4.00l-10.25,0.00 q-6.25-0.50 -7.25,4.50q-0.50,1.00 2.75,4.75q 1.50-1.00 3.25,1.25t 2.25,2.25l 2.00-1.00q 2.50-1.00 4.375,4.875t 1.375,19.125q 1.00,1.00 -0.50,2.50t-1.50,2.75q-2.50,1.50 -3.625,7.125t-4.125,6.625q-12.75,10.75 -12.75,25.50q0.00,4.00 1.00,8.25q 4.00,8.75 13.25,10.75l 5.00,8.25q 2.50,4.00 2.25,7.75q-2.00-0.50 -5.125,1.25t-3.625,1.75t-4.25,1.00 q-2.00,1.00 -2.00-1.50l-0.50-3.25q 1.00-1.00 2.375-2.00t 3.375-2.50q-1.00-1.00 -0.25-2.75t-0.75-2.25q 1.50-1.00 0.50-2.25q-1.50-1.50 -1.50-2.00q-6.25,7.75 -5.75,9.75q-1.00,0.00 -4.00-5.50l 1.00-1.75l 1.00,0.50l 0.50-0.50q 0.50-1.00 0.50-3.00q 0.50-6.25 -2.50-8.25l-3.25,8.75q-2.00-1.50 -1.00-5.00q 0.50-3.50 0.50-5.25q-1.00-2.50 -4.50-6.00l-1.00,11.75q 0.50,1.00 2.25,2.00t 0.75,2.50q-2.00,0.50 -5.50-1.50q-0.25,1.00 -2.25,1.00zM 137.25,382.75 q 3.00,0.50 7.25,2.75q0.00-0.50 4.00-5.625t 4.50-5.875q 3.00-1.00 2.25-1.50q-2.00,4.50 -3.25,14.50l 4.75,0.00 q 2.00-4.50 3.50-14.50q0.00-0.50 0.75-3.75t 1.00-4.375l 1.25-5.625l-5.00-1.50q-1.00,3.00 -1.50,5.00q-2.00,2.00 -7.25,8.75l-4.00,6.25q 2.00-8.25 4.00-21.50q-1.50-1.50 -5.75-2.00q-1.00,15.25 -4.00,23.50q0.00,0.50 -2.50,5.50zM 139.75,116.50q 0.50,5.00 4.75,19.00q0.00,2.00 1.25,4.875t 6.75,2.875q 6.25,0.00 7.75-3.875t 0.50-9.875 q-2.00-7.25 -1.50-10.25l-2.00-7.25l-5.25,2.00l 3.75,21.50q0.00,2.00 -4.25,2.00q-2.00-6.75 -5.50-18.75l-1.00-4.25q-2.25,0.00 -5.25,2.00zM 144.50,296.25l 4.50,0.50l-1.00-1.00zM 151.50,183.75l 1.00-0.50l0.00,0.50 l-1.00,0.00 zM 152.00,298.25q 3.00-1.00 5.25,1.75q-3.25-0.25 -5.25-1.75zM 160.25,186.75q 2.00,0.00 2.00-0.50q 0.50,0.50 2.00,0.50q 1.00-2.00 5.125-1.75t 5.125-0.75l 1.75,2.00q 1.00,1.00 4.50-0.50q 1.00,1.00 2.50,4.50l-4.00,18.50l-2.00,3.50l-1.00,0.00 q-4.00,3.50 -7.25,9.25 l-0.50-1.00q0.00-0.50 1.00-2.00t 0.50-2.50q-0.50-0.50 -1.50-2.75q-1.00,0.00 -2.00,1.00q 1.00-1.50 0.00-3.50l 0.50-0.50q 0.50-1.50 -0.50-4.00l-2.75,2.00q-1.50-2.00 -1.00-6.25q-1.00-5.00 -1.00-5.50q-1.50-2.50 -1.50-9.75zM 164.75,383.25q 1.50,5.00 7.75,5.25q 8.25,0.00 10.25-6.75l0.00-10.75 q-0.50-8.25 -5.50-11.25q-1.50-0.50 -4.25-0.50q-3.00,0.00 -4.50,0.50q-4.25,3.50 -3.75,23.50zM 165.50,269.25q 4.00,5.00 9.00,16.25q 1.00,2.00 4.25,6.25l-0.50,3.50l 0.50-0.50 q 1.00,3.50 4.00,10.25q0.00,1.00 -1.00,2.50q 0.50,0.50 1.50,8.25l 2.50-2.00l0.00-12.25 q 1.00,3.50 2.75,9.75l 1.50-13.50q0.00,1.00 1.50,2.75l0.00,1.00 l 1.50,1.00q-1.00-4.00 -2.25-8.75t-5.00-6.25l-0.50,0.50l-8.00-8.00l-3.25-3.25q-2.75-3.00 -8.50-7.50zM 170.00,368.50q 0.50-4.00 3.00-4.00q 1.50,0.50 2.50,2.50q0.00,4.00 0.75,13.75q-2.50,5.75 -5.25,0.50q0.00-4.00 -1.00-12.75zM 171.00,125.25q-0.50,5.00 2.50,5.75q 4.50-0.50 5.75-4.75q-1.00-1.00 -3.00-3.50 q-2.25,0.00 -5.25,2.50zM 178.25,181.00l 3.50-4.00q 0.50,1.00 -0.50,2.50l 2.50,2.50zM 183.75,358.25q0.00,2.50 1.00,6.875t 3.25,12.625q 1.50,4.50 1.00,10.25l 6.50-2.00q0.00-1.50 4.75-13.50l 2.50,11.75l 5.00-1.00l-5.50-28.50q-1.00,0.00 -2.50,0.50l-2.75,0.00 q0.00,2.00 1.25,8.75q-1.50,6.25 -5.25,11.25l-2.00-9.75q0.00-1.00 -1.00-4.25q-1.00-2.50 0.00-3.50q-1.50-0.50 -3.00,0.50l-3.25,0.00 zM 190.00,137.00q0.00,0.50 3.50,5.75q 0.50,0.00 3.00,1.50q 1.50,1.00 3.25-0.50q0.00,1.00 1.00,1.00 t 1.50-1.00q0.00,1.00 1.50,1.00q 1.50-5.75 1.00-6.75q-6.75,3.00 -8.25-1.00q0.00-4.50 6.25-6.375t 5.75-6.375q0.00,0.50 -0.75-7.25q-2.50-3.00 -10.00-3.00q 0.50-1.00 -2.25-1.00q0.00,3.50 -0.50,3.50l0.00,3.75 q 2.50,0.00 5.625,0.25t 2.625,2.75q0.00,1.00 -7.375,4.50t-5.875,9.25zM 207.25,147.25q 7.75,2.00 12.00,4.75l 10.75-24.75l 1.50-3.00q-0.50,0.50 -1.00,0.00t-2.75-1.50q-4.00-0.50 -7.00-2.00q-0.50-2.00 -2.75-1.50q0.00,0.50 -1.50,4.00 q-1.50,2.50 1.00,3.00l 5.25,2.00l-1.00,3.25q-0.50,1.50 -2.00,1.50q-1.00-1.00 -3.25-2.50q-1.00,2.00 -2.50,6.50l 4.00,1.00q-0.50,2.00 -2.50,5.75q-1.00,0.00 -3.50-1.75t-3.50-0.75q-2.75,3.50 -1.25,6.00zM 218.00,348.00q 0.50,14.75 1.75,11.25q 0.50,2.00 4.00,19.00l 5.00-2.00q-1.00-2.50 -1.00-9.25q-2.00-2.00 -1.00-7.25q 3.50,3.50 10.25,11.75l 4.75-3.00q-7.25-7.75 -20.00-22.50zM 220.75,151.00q0.00,2.50 2.00,3.50l 4.00,2.00l 5.25-4.50q 3.00,2.00 2.50,2.50 q-3.00,3.50 -2.50,5.50q 1.00,0.50 2.00,1.625t 2.50,1.125q 2.50-7.75 7.75-12.50q 2.50-4.00 7.75-12.75q-1.00,0.50 -2.125-0.75t-1.625-1.25q-5.00-3.00 -9.25-2.50q-2.50-1.00 -9.50,7.25q-1.00,1.00 0.00,3.00q0.00,1.00 -0.75,2.50l 0.75,1.00q-2.00,1.50 -4.375,3.375t-4.375,0.875zM 228.75,342.25q 4.50,9.25 15.00,24.75q 0.50,0.00 2.00-1.00t 2.50-1.00q0.00-1.50 -3.50-8.25q-1.00-1.00 -2.75-3.875t-3.625-6.75t-5.875-7.375z M 235.00,336.75q 5.00,5.00 6.75,10.25q 3.50,4.00 11.25,14.25q 10.25-6.25 10.25-16.25q-1.00-8.75 -11.75-8.75l-2.75-10.75q-2.50,0.00 -4.50,3.50q0.00,2.00 1.50,7.25q-3.00,2.00 -2.50,2.00q-0.50,0.50 -1.50-2.00t-2.25-2.50zM 236.00,146.75q-0.50-6.25 2.50-8.25q 0.50,0.00 4.75,1.75q-2.00,2.50 -5.75,9.00zM 239.50,395.50q 3.00-2.00 8.25-5.75t 17.00-11.50q 1.00-0.50 5.50,3.50q 1.00,3.00 -3.25,4.125t-4.25,3.125q 2.00,1.50 5.25-0.25t 5.00-1.75 q 1.00,5.75 1.50,4.00q 2.00,3.00 -3.75,5.75q-2.50,0.00 -7.50,1.00q-0.50-1.00 -7.75-1.00q-3.50,1.00 -4.00-1.25q-4.75,3.00 -12.00,0.00zM 240.75,104.75q 3.00-2.00 10.75-0.50q 1.50-1.50 6.375-0.50t 5.875-1.00q 1.00,0.00 8.75,1.00q 3.00,2.00 2.50,6.25q-0.50,3.00 -2.00,3.00q-0.50,0.00 -2.875-1.25t-3.875-0.75q-0.50-2.00 -2.50-1.50t-3.25-0.50q-0.50,0.50 -0.50,2.00q 2.00,2.00 11.25,5.00l-2.00,4.25q-1.00,2.00 -3.50,1.50q-3.50-1.00 -3.00-3.00l-2.00-1.00 q-1.75-0.75 -5.00-2.75t-4.375-3.50t-5.375-2.625t-5.25-4.125zM 241.25,164.75q 0.50,3.50 5.50,8.75q 2.00,0.50 4.25,0.50q 4.50,0.00 8.50-5.75q 5.75-7.75 7.75-8.75q 0.50-5.75 -2.50-11.75q-4.50-3.00 -8.25-1.00q-2.50-1.50 -4.625,1.00t-3.625,4.75q-3.50,3.50 -7.00,12.25zM 247.25,165.25q 0.50-3.00 10.75-12.75l 2.50,2.00q-0.50,5.00 -9.00,12.25q-1.25,1.50 -4.25-1.50zM 247.25,343.00l 1.00,0.00 q 1.50-2.50 7.25,0.50 q 3.50,3.50 -1.50,8.50q-2.75-2.25 -6.75-9.00zM 251.00,321.50q 1.50,1.50 17.75,15.75l-3.50,4.00l 2.00,2.25q 1.50,1.50 3.00,1.50q 4.00-4.50 10.25-14.50q-2.00-2.50 -4.50-3.00q-1.50,1.00 -3.00,5.25q-6.25-6.75 -19.50-15.00zM 253.50,181.00q 1.00,1.00 3.00,4.75q 1.00-0.50 19.50-13.25q 0.50,1.00 1.50,2.00t 1.00,2.00q 5.00-1.00 5.75-3.00l-1.75-3.75q-0.50-0.50 -2.00-2.50l-7.50-9.25l-4.75,4.75l 4.25,4.00q-3.50,3.00 -4.75,3.00q-8.00,8.75 -14.25,11.25z M 259.00,190.25q 3.50,5.75 8.75,12.25q 4.50-1.50 26.25-12.75q-2.00-2.00 -3.75-6.00q-7.25,3.00 -20.50,11.25q-1.50-1.50 -3.00-4.375t-2.00-3.875q-7.25,2.50 -5.75,3.50zM 263.25,304.00q-3.00,5.00 0.00,12.25q 6.75,4.00 19.25,11.25q 1.00-1.50 3.75-5.50q0.00-0.50 -5.25-2.75q-3.00-1.00 -10.75-5.50q-2.50-1.50 -1.50-5.25q 1.00-3.50 4.25-2.00q 4.00,3.00 15.25,9.75q 2.50-0.50 3.50-4.50q-6.25-4.50 -19.25-11.75 q-2.50-1.00 -4.875,0.75t-4.375,3.25zM 269.75,289.75l0.00,1.00 q 3.50,1.50 10.25,5.50l 11.25,2.50q-1.00,1.50 -1.50,5.75q 4.50,3.00 6.25,0.50q-0.50-1.50 0.75-3.875t 1.75-4.375t 1.50-7.00l-5.00-2.25q-0.50,2.00 -2.75,5.25q-9.75-2.00 -19.75-7.75q-1.25,1.75 -2.75,4.75zM 270.75,212.25q 5.00,8.25 11.25,7.25q 4.50-1.50 16.50-4.50q 2.50-1.00 3.00-0.75l-1.50-6.50q-4.00,1.50 -16.75,5.00q-4.50,2.00 -4.75-2.50q0.00-1.50 2.00-2.50q 5.75-2.00 17.00-7.25 l-1.50-5.50q-8.25,2.50 -16.00,5.00q-9.25,3.50 -9.25,12.25zM 273.00,119.25q 2.50-5.00 9.00-15.00q 2.00,0.00 3.125,2.625t 2.125,3.125q-1.50,2.00 -4.75,2.00q0.00,0.50 -2.00,5.50q-1.50,3.50 0.00,6.25q-6.25,1.50 -5.50,1.50q-2.50-1.50 -2.00-6.00zM 273.00,278.25l 26.50,7.25q 2.00,0.50 2.50-1.25t 0.50-3.25l0.00-1.00 l-22.50-6.25q-2.00,0.50 -5.00-0.50q0.00,2.00 -2.00,5.00zM 273.00,378.75q0.00-2.00 1.50-3.50l 0.50,1.00l 5.50,0.00 q-1.50,5.00 0.50,7.00 q-0.50,2.00 2.375,4.125t 3.375,3.125q-4.00,6.25 -6.25,5.00q-2.50-3.00 -2.75-5.25t-2.50-6.125t-2.25-5.375zM 274.50,131.00q0.00-3.00 6.00-3.75l0.00,3.75 q 1.00,0.50 4.25,5.00q 2.00,3.00 5.50,2.00l0.00,4.75 q-1.50,2.50 -4.50,2.00q-3.00-1.00 -3.875-3.625t-4.375-4.875t-3.00-5.25zM 274.50,370.00q-0.50-3.00 2.75-5.625t 4.00-3.875t 2.875-4.00t 4.125-1.75q 2.50,0.50 2.25,3.50t 0.75,4.00l-2.00,0.00  q-1.50,0.00 -3.00,1.625t-3.00,1.625q-2.50,2.00 -2.75,7.00q-2.00,0.00 -6.00-2.50zM 276.00,229.75q0.00,3.50 8.75,9.75q 1.00,0.00 3.50-0.50q 11.75-2.00 15.25-8.75q 2.00-5.75 -2.50-11.75q-1.50,1.50 -5.00,1.50q-0.50,0.50 2.50,4.00l0.00,1.75 q-0.50,0.50 0.00,2.00q-1.50,2.00 -6.25,4.50q-3.00,1.00 -9.00,0.00q-2.00-1.50 -2.25-5.00l 2.25-3.25l-6.25-1.00q-1.50,2.25 -1.00,6.75zM 277.00,267.50q0.00,1.00 0.50,3.75q 1.50,0.00 3.50,1.00l 1.00-1.00q 1.00,0.50 1.25,0.00q-2.50-9.75 0.00-11.75 q 3.00,1.00 5.50,5.875t 3.625,6.125t 6.125,2.25q 3.50-1.00 7.25-10.75l-1.00-2.50q0.00-4.50 -0.50-2.50q-1.50-0.50 -4.25,0.00q-1.00-1.00 -1.50-1.25q 2.00,5.00 -1.00,10.75q-3.00-1.50 -4.625-7.375t-5.625-6.375l-2.00,0.00 q-0.50,0.00 -4.75,1.50q-6.00,7.75 -3.50,12.25zM 282.50,120.75q 0.50-0.50 2.25-0.50q 2.00,0.00 4.50,7.50q-1.50,1.50 -4.50,3.25q-0.75-3.50 -2.25-10.25zM 282.50,379.75q 0.50-4.00 2.25-10.75l 4.50,3.50l-1.50,6.25 q-4.75,1.50 -5.25,1.00zM 284.75,384.25l 0.50-0.50q 1.50-3.00 4.50-2.00q 2.00,1.00 4.75,2.00l 1.50,5.75q-2.50-0.25 -11.25-5.25zM 285.25,115.50q 3.00-2.00 9.75-4.50q 1.50,3.50 -5.75,8.25q-2.00-1.25 -4.00-3.75zM 287.25,365.50q 6.75,0.50 11.25-1.00q-1.00,1.50 -2.00,5.50q-6.75,4.25 -9.25-4.50zM 287.25,398.25q-0.50-1.50 0.75-3.625t 1.25-3.125l 6.75,2.00q 0.50-1.00 0.50-1.50q 4.00,3.00 7.00-3.00q 4.00,1.00 5.75,5.50q-3.00,5.00 -12.75,4.25 q-7.25,5.25 -9.25-0.50zM 287.75,105.75q0.00-5.75 3.50-5.50q 1.00,0.00 4.875,1.25t 5.875,1.25t 3.75-1.00q 4.00,0.00 3.00,5.50q-1.50,2.00 -4.50,4.25l-0.75-2.00q-0.50,0.00 -2.00-1.00q-0.50-1.00 -1.50,0.00q 1.00-0.50 -3.50-1.75q-3.50-2.50 -6.75,2.25zM 287.75,133.50l 0.50-0.50q 1.00-3.00 8.75-2.50q0.00,1.50 2.00,4.50l-0.50,2.00q-5.75-3.00 -10.75-3.50zM 291.75,126.25l 0.50-1.00q 1.00,0.50 0.50,1.00l-1.00,0.00 zM 291.75,374.75l 1.00,0.00 l0.00,1.00 l-1.00,0.00 l0.00-1.00 zM 291.75,378.75 q 0.50,0.00 1.00,0.50l-0.50,0.50zM 292.25,121.25l 0.50-0.50zM 292.75,143.75q0.00-1.50 1.25-5.75q 2.00,2.00 5.50,1.00q 4.00-2.00 6.25-1.50l 1.50-5.00q 1.50-0.50 3.00,1.25t 2.00,1.75q 3.00,2.50 -0.50,4.00l-12.75,7.25q-4.75,2.00 -6.25-3.00zM 294.50,123.25q 0.50,0.00 1.75-1.25t 2.25-1.25q-0.50,0.50 -2.00,1.50t-1.50,2.00zM 294.50,353.00l 7.00,2.25q 5.00,1.50 11.75,8.75q-2.50,1.50 -6.50,4.50l-1.00-4.00q-2.50,0.50 -5.125-1.625t-3.625-2.125t-2.50,1.00 q-1.50-2.50 0.00-8.75zM 294.50,377.25l 0.50-1.00l 1.00,0.50q-1.00,1.00 -1.50,0.50zM 296.00,154.00q0.00-1.50 3.00-4.75q 1.00-0.50 3.00-1.00q 1.00,4.00 5.25,9.25l 1.00-2.50q-1.00-2.50 -3.50-7.75q 1.00-1.00 5.00-2.00q 2.00,1.00 4.50,4.00l-0.50,0.50q0.00,3.00 1.75,7.25q-2.00,1.50 -2.25,3.00q0.00,1.00 1.00,4.25q 1.00,3.00 0.00,4.50l-0.50-1.00l-0.50,1.00q-0.50,0.50 1.00,2.50q 1.00,3.00 -1.00,9.75l-4.00-4.00q0.00-2.50 -3.375-6.125t-3.375-6.625 q-1.50-1.00 -6.50-10.25zM 296.50,348.50q-0.50-4.50 4.125-9.875t 5.125-9.625q 1.50,0.50 2.25-1.75t 1.25-2.75t 2.50-2.00q 1.50-0.50 0.00-2.25l 1.50,0.00 l 1.00,1.75q 0.50,1.50 -0.50,4.00q-0.50,2.50 1.75,7.25q0.00,6.75 -1.75,19.25q-5.00,5.00 -9.00,1.75q0.00-2.00 2.50-7.25q 1.50-3.50 0.00-6.75l-1.50,1.00q-1.00,3.50 -3.75,10.75zM 296.50,374.00l 1.00,0.00 l0.00,0.75 zM 296.50,379.25l 1.00-0.50q 0.50,0.50 -0.50,1.00zM 297.50,116.00q 0.50-1.50 1.00-3.25t 2.50-1.25 q 2.50,2.50 6.25,8.75q-2.00-0.50 -5.75,1.00q-2.00-1.25 -4.00-5.25zM 299.00,128.75q 3.00-2.50 2.50-5.00q 2.50-1.00 6.75,0.50q-1.00,1.00 -3.375,5.625t-3.375,4.625q-1.50,0.00 -2.50-5.75zM 299.00,372.00q 1.00-1.50 3.00-5.50q 1.50,0.50 2.875,3.75t 2.375,4.50l0.00,2.00 l-5.25,0.00 q-1.50-1.00 -1.00-3.25zM 299.00,389.50q-1.00-8.25 2.00-10.25l 5.75,1.50l-2.00,3.00q-2.00,0.00 -3.375,2.875t-2.375,2.875zM 306.75,114.00 q 0.50,0.00 2.50-2.50t 4.00-2.00q 0.50,0.50 3.25,7.00q 0.50,2.50 0.00,7.25q0.00-1.00 1.00,4.50q 0.50,2.50 -2.00,4.25q-2.50-0.50 -6.25-3.75q 2.00-3.50 3.00-3.50l-2.50-3.50q 1.50-2.00 1.50-1.50q0.00-2.50 -2.00-4.125t-2.50-2.125zM 306.75,386.00q 0.50,0.00 1.50-1.25q 0.50-2.50 2.50-7.50q-0.50-3.50 -2.50-6.25q 2.00-1.50 4.00-2.50q 2.50-1.00 4.25,1.50q 1.50,3.00 -0.50,7.25l0.00,9.75 q-0.50,0.50 -1.625,2.75t-3.125,1.25q-2.00-2.00 -4.50-5.00z" horiz-adv-x="349" />
<glyph unicode="&#xb2;" d="M 17.00,225.75l0.00,31.00 q 5.00,6.25 60.25,88.25q 15.75,23.50 16.00,34.75q0.00,20.00 -23.50,20.00q-17.50,0.00 -41.50-15.00l0.00,36.00 q 21.00,10.75 46.00,10.75q 24.50,0.00 40.00-11.75q 17.50-13.25 17.25-38.50q0.00-21.00 -23.50-55.25l-45.50-66.50l 51.25,0.00 q 12.75,0.00 20.00,1.00l0.00-34.75 l-116.75,0.00 z" horiz-adv-x="154" />
<glyph unicode="&#xb3;" d="M 12.75,228.25l0.00,37.25 q 4.50-3.50 17.50-6.50q 11.25-3.00 13.75-3.25q 38.50,0.00 38.50,29.75q0.00,17.50 -9.25,25.375t-31.75,8.875l0.00,28.25 q 30.25,3.00 30.25,25.50q0.00,9.25 -7.00,16.25t-17.75,7.00q-14.25,0.00 -31.25-10.25l0.00,35.75 q 16.50,7.75 39.50,7.75q 20.50,0.00 36.375-14.875t 15.875-35.375q0.00-23.50 -16.25-38.00q 30.25-13.75 30.00-57.25q0.00-25.00 -14.25-42.00q-19.00-23.00 -56.75-23.00 q-15.50,0.00 -37.50,8.75z" horiz-adv-x="139.75" />
<glyph unicode="&#xb4;" d="M 34.25,350.50l 29.25,76.25l 41.50-23.00l-44.50-67.50z" horiz-adv-x="138.75" />
<glyph unicode="&#xb5;" d="M 40.00-13.00l0.00,313.00 l 65.50,0.00 l0.00-99.50 q0.00-77.75 50.75-77.75q 27.25,0.00 40.75,22.00q 11.75,18.50 12.00,47.00l0.00,108.25 l 65.50,0.00 l0.00-229.50 l-60.50,0.00 l0.00,30.25 l-7.75,0.00 q-6.25-18.00 -20.50-27.25q-12.25-7.75 -27.00-7.50q-31.75,0.00 -45.50,32.75l-7.75,0.00 l0.00-111.75 l-65.50,0.00 z" horiz-adv-x="308.5" />
<glyph unicode="&#x58;" d="M 8.25,70.50l 86.00,174.00l-82.00,167.50l 69.25,0.00 q 1.50-10.25 10.25-27.75l 35.75-71.50l 35.25,71.50q 8.25,15.75 10.75,27.75l 67.25,0.00 l-82.00-164.75l 87.50-176.75l-69.50,0.00 q-4.50,15.25 -13.00,32.25l-37.25,76.75l-39.50-78.75q-8.25-16.50 -10.75-30.25l-68.00,0.00 z" horiz-adv-x="252.75" />
<glyph unicode="&#xb6;" d="M 5.00,329.50q0.00,42.00 24.75,68.75q 28.25,29.75 81.75,29.75l 165.00,0.00 l0.00-57.00 l-27.75,0.00 l0.00-392.25 l-52.75,0.00 l0.00,392.25 l-41.50,0.00 l0.00-392.25 l-52.00,0.00 l0.00,255.00 q-48.25,4.00 -72.875,29.125t-24.625,66.625z" horiz-adv-x="276.75" />
<glyph unicode="&#xb7;" d="M 20.50,244.50q0.00,16.50 11.25,28.00t 28.25,11.50q 15.75,0.00 27.25-11.50t 11.50-28.00q0.00-17.00 -11.25-28.125t-27.50-11.125q-16.50,0.00 -28.00,11.375t-11.50,27.875z" horiz-adv-x="119.25" />
<glyph unicode="&#x59;" d="M 7.75,412.00l 62.50,0.00 q 3.00-19.50 10.25-36.75l 43.00-102.50l 42.00,102.50q 7.25,18.00 9.50,36.75l 64.50,0.00 l-85.50-201.75l0.00-93.25 q0.00-29.25 2.25-46.50l-66.75,0.00 q 2.00,19.00 2.25,48.25l0.00,91.00 z" horiz-adv-x="245.75" />
<glyph unicode="&#xb8;" d="M 58.25,13.75q 7.75-1.50 15.50-1.50q 27.75,0.00 27.75,18.25q0.00,10.25 -11.50,15.00l 5.25,50.00q 7.75-1.50 33.25-11.75l-3.50-31.25q 20.00-9.25 20.00-30.25q0.00-23.50 -25.25-36.75q-21.00-11.25 -47.50-11.25q-5.75,0.00 -10.75,0.50z" horiz-adv-x="207.25" />
<glyph unicode="&#xb9;" d="M 23.00,377.25l0.00,22.00 q 31.25,3.00 44.50,29.75l 22.50,0.00 q-1.00-7.25 -1.00-25.25l0.00-155.00 q0.00-20.00 1.00-25.75l-39.75,0.00 q 1.50,6.75 1.50,25.25l0.00,129.00 l-28.75,0.00 z" horiz-adv-x="123.25" />
<glyph unicode="&#xba;" d="M 13.25,342.25q0.00,69.75 59.50,69.75t 59.25-69.75q0.00-69.75 -59.25-69.50q-59.50-0.25 -59.50,69.50zM 49.75,342.25q0.00-18.00 3.00-26.00q 5.00-13.25 20.00-13.25q 14.75,0.00 19.50,13.25q 3.00,7.75 3.00,26.00q0.00,18.50 -3.00,26.25q-4.50,13.25 -19.50,13.25q-14.75,0.00 -20.00-13.25q-3.00-8.25 -3.00-26.25z" horiz-adv-x="146.25" />
<glyph unicode="&#xbb;" d="M 20.50,121.25l 29.25,74.25l-29.25,72.75l 27.75,12.25l 52.00-86.50l-53.75-87.25zM 83.50,121.25l 29.25,74.25l-29.25,72.75l 28.00,12.25l 52.25-86.50l-53.75-87.25z" horiz-adv-x="184.25" />
<glyph unicode="&#xbc;" d="M 23.00,377.25l0.00,22.00 q 31.25,3.00 44.50,29.75l 22.50,0.00 q-1.00-7.25 -1.00-25.25l0.00-155.00 q0.00-20.00 1.00-25.75l-39.75,0.00 q 1.50,6.75 1.50,25.25l0.00,129.00 l-28.75,0.00 zM 38.50,61.25l 244.75,367.75l 39.75,0.00 l-244.75-367.75l-39.75,0.00 zM 223.75,119.75l0.00,34.75 l 73.75,119.75l 36.75,0.00 l0.00-121.75 l 7.25,0.00 q 2.50,0.00 12.25,1.00l0.00-35.50 q-5.75,1.00 -12.75,1.25l-6.75,0.00 l0.00-26.75 q0.00-13.75 1.00-23.00l-37.75,0.00 q 1.50,9.75 1.50,23.00l0.00,27.25 l-75.25,0.00 zM 262.75,152.50l 36.25,0.00 l0.00,60.25 z " horiz-adv-x="380.75" />
<glyph unicode="&#xbd;" d="M 23.00,377.25l0.00,22.00 q 31.25,3.00 44.50,29.75l 22.50,0.00 q-1.00-7.25 -1.00-25.25l0.00-155.00 q0.00-20.00 1.00-25.75l-39.75,0.00 q 1.50,6.75 1.50,25.25l0.00,129.00 l-28.75,0.00 zM 38.50,61.25l 244.75,367.75l 39.75,0.00 l-244.75-367.75l-39.75,0.00 zM 257.00,70.50l0.00,30.75 q 5.00,6.25 60.50,88.00q 15.75,23.50 15.75,34.75q0.00,20.00 -23.50,20.00q-17.50,0.00 -41.50-14.75l0.00,35.75 q 21.00,10.75 46.00,10.75q 24.50,0.00 40.00-11.75q 17.50-13.25 17.50-38.25q0.00-21.00 -23.50-55.50 l-45.75-66.50l 51.25,0.00 q 12.75,0.00 20.00,1.00l0.00-34.25 l-116.75,0.00 z" horiz-adv-x="395.75" />
<glyph unicode="&#xbe;" d="M 12.75,228.25l0.00,37.25 q 4.50-3.50 17.50-6.50q 11.25-3.00 13.75-3.25q 38.50,0.00 38.50,29.75q0.00,17.50 -9.25,25.375t-31.75,8.875l0.00,28.25 q 30.25,3.00 30.25,25.50q0.00,9.25 -7.00,16.25t-17.75,7.00q-14.25,0.00 -31.25-10.25l0.00,35.75 q 16.50,7.75 39.50,7.75q 20.50,0.00 36.375-14.875t 15.875-35.375q0.00-23.50 -16.25-38.00q 30.25-13.75 30.00-57.25q0.00-25.00 -14.25-42.00q-19.00-23.00 -56.75-23.00 q-15.50,0.00 -37.50,8.75zM 50.75,61.25l 244.75,367.75l 39.75,0.00 l-244.75-367.75l-39.75,0.00 zM 236.00,119.75l0.00,34.75 l 73.75,119.75l 36.75,0.00 l0.00-121.75 l 7.25,0.00 q 2.50,0.00 12.25,1.00l0.00-35.50 q-5.75,1.00 -12.75,1.25l-6.75,0.00 l0.00-26.75 q0.00-13.75 1.25-23.00l-38.00,0.00 q 1.50,9.75 1.50,23.00l0.00,27.25 l-75.25,0.00 zM 275.00,152.50l 36.25,0.00 l0.00,60.25 z" horiz-adv-x="380.75" />
<glyph unicode="&#xbf;" d="M 23.00,31.00q0.00,28.75 19.00,54.75q 19.00,22.00 37.25,44.25q 11.25,14.75 13.50,27.00q 1.00,7.25 1.50,42.00l 58.25,0.00 l0.00-25.50 q 0.50-19.50 -2.50-33.25q-5.00-20.50 -37.25-58.50q-29.75-34.25 -29.75-49.25q0.00-12.25 8.625-19.875t 21.625-7.625q 32.75,0.00 66.00,19.50l0.00-57.50 q-30.25-14.75 -71.75-14.75q-36.25,0.00 -60.375,21.50t-24.125,57.25zM 84.00,261.50q0.00,16.50 12.00,28.25t 28.00,11.75 q 16.50,0.00 27.875-11.875t 11.375-28.125q0.00-16.50 -11.50-28.00t-27.75-11.50q-16.50,0.00 -28.25,11.875t-11.75,27.625z" horiz-adv-x="195.5" />
<glyph unicode="&#xc0;" d="M 7.75,70.50l 90.00,341.50l 75.75,0.00 l 56.50-212.50l 26.50,0.00 l0.00-54.25 l-12.25,0.00 l 20.00-74.75l-71.25,0.00 q0.00,8.25 -6.00,33.25l-10.25,41.50l-89.25,0.00 l-11.75-41.50q-7.25-26.00 -7.25-33.25l-60.75,0.00 zM 96.25,520.00l 41.00,23.00l 29.75-76.75l-26.75-13.75zM 102.50,199.50l 60.25,0.00 l-28.50,114.25z" horiz-adv-x="273.75" />
<glyph unicode="&#xc1;" d="M 7.75,70.50l 90.00,341.50l 75.75,0.00 l 56.50-212.50l 26.50,0.00 l0.00-54.25 l-12.25,0.00 l 20.00-74.75l-71.25,0.00 q0.00,8.25 -6.00,33.25l-10.25,41.50l-89.25,0.00 l-11.75-41.50q-7.25-26.00 -7.25-33.25l-60.75,0.00 zM 102.50,199.50l 60.25,0.00 l-28.50,114.25zM 110.50,466.25l 29.75,76.75l 41.00-23.00l-44.50-67.50z" horiz-adv-x="273.75" />
<glyph unicode="&#xc2;" d="M 7.75,70.50l 90.00,341.50l 75.75,0.00 l 56.50-212.50l 26.50,0.00 l0.00-54.25 l-12.25,0.00 l 20.00-74.75l-71.25,0.00 q0.00,8.25 -6.00,33.25l-10.25,41.50l-89.25,0.00 l-11.75-41.50q-7.25-26.00 -7.25-33.25l-60.75,0.00 zM 71.75,465.75l 38.75,61.00l 51.25,0.00 l 40.00-60.50l-21.00-19.50l-44.00,49.25l-43.50-47.75zM 102.50,199.50l 60.25,0.00 l-28.50,114.25z" horiz-adv-x="271.25" />
<glyph unicode="&#xc3;" d="M 7.75,70.50l 90.00,341.50l 75.75,0.00 l 56.50-212.50l 26.50,0.00 l0.00-54.25 l-12.25,0.00 l 20.00-74.75l-71.25,0.00 q0.00,8.25 -6.00,33.25l-10.25,41.50l-89.25,0.00 l-11.75-41.50q-7.25-26.00 -7.25-33.25l-60.75,0.00 zM 65.00,489.25q 22.00,31.25 48.25,31.25q 10.25,0.00 26.625-8.125t 22.875-8.125q 14.25,0.00 27.25,18.75l 17.25-29.50q-23.50-27.75 -45.00-27.75q-11.25,0.00 -28.125,8.50t-23.125,8.50q-13.25,0.00 -28.00-22.00z M 102.50,199.50l 60.25,0.00 l-28.50,114.25z" horiz-adv-x="272.25" />
<glyph unicode="&#xc4;" d="M 7.75,70.50l 90.00,341.50l 75.75,0.00 l 56.50-212.50l 26.50,0.00 l0.00-54.25 l-12.25,0.00 l 20.00-74.75l-71.25,0.00 q0.00,8.25 -6.00,33.25l-10.25,41.50l-89.25,0.00 l-11.75-41.50q-7.25-26.00 -7.25-33.25l-60.75,0.00 zM 65.50,492.50q0.00,12.25 8.50,20.625t 20.75,8.375t 21.00-8.375t 8.75-20.625q0.00-11.75 -8.75-20.25t-21.00-8.50t-20.75,8.50t-8.50,20.25zM 102.50,199.50l 60.25,0.00 l-28.50,114.25zM 149.50,492.50q0.00,12.25 8.75,20.625t 21.00,8.375 t 20.75-8.375t 8.50-20.625q0.00-11.75 -8.50-20.25t-20.75-8.50t-21.00,8.50t-8.75,20.25z" horiz-adv-x="272.75" />
<glyph unicode="&#xc5;" d="M 7.75,70.50l 90.00,341.50l 75.75,0.00 l 56.50-212.50l 26.50,0.00 l0.00-54.25 l-12.25,0.00 l 20.00-74.75l-71.25,0.00 q0.00,8.25 -6.00,33.25l-10.25,41.50l-89.25,0.00 l-11.75-41.50q-7.25-26.00 -7.25-33.25l-60.75,0.00 zM 85.00,492.50q0.00,22.00 15.375,37.625t 37.375,15.625t 37.625-15.625t 15.625-37.625t-15.625-37.375t-37.625-15.375q-21.50,0.00 -37.125,15.375t-15.625,37.375zM 102.50,199.50l 60.25,0.00 l-28.50,114.25z M 120.25,492.50q0.00-6.75 5.375-12.125t 12.125-5.375q 7.75,0.00 12.875,5.125t 5.125,12.375q0.00,18.00 -18.00,17.75q-7.25,0.00 -12.375-5.00t-5.125-12.75z" horiz-adv-x="274.75" />
<glyph unicode="&#xc6;" d="M-7.25,70.50q 17.50,25.50 43.00,76.75l 100.00,202.75q 14.75,29.75 25.00,62.00l 208.00,0.00 l0.00-59.50 q-32.75,3.50 -53.25,3.75l-51.25,0.00 l0.00-78.50 l 34.75,0.00 q 23.50,0.00 48.75,3.25l0.00-59.50 l-6.25,1.00q-18.50,2.00 -36.75,2.00l-40.50,0.00 l0.00-98.25 l 62.00,0.00 q 20.50,0.00 48.50,3.75l0.00-59.50 l-177.75,0.00 q 4.50,33.75 4.75,68.50l0.00,78.00 q-103.50-26.00 -134.25-146.50l-74.75,0.00 zM 145.00,245.50q 12.75,8.75 25.50,17.25t 31.25,10.50l0.00,76.75 z" horiz-adv-x="386" />
<glyph unicode="&#xc7;" d="M 11.75,249.75q0.00,63.50 34.25,112.50q 37.50,54.25 95.25,54.25q 28.25,0.00 59.50-11.75l0.00-61.25 q-30.25,15.25 -53.25,15.25q-32.25,0.00 -52.25-38.50q-17.50-32.75 -17.50-70.50q0.00-123.50 69.75-123.50q 16.50,0.00 28.00,4.25q 3.50,1.50 25.25,12.25l 0.50-65.00q-36.25-11.25 -59.50-11.25l-3.00-24.25q 20.00-9.25 20.00-30.00q0.00-23.50 -25.00-37.00q-20.50-11.25 -47.25-11.25q-5.75,0.00 -10.75,0.50l-3.00,39.00 q 7.75-1.50 14.75-1.50q 28.25,0.00 28.25,18.25q0.00,10.25 -11.75,15.00l 3.50,34.75q-95.75,22.50 -95.75,179.75z" horiz-adv-x="213.5" />
<glyph unicode="&#xc8;" d="M 24.50,70.50q 2.00,12.75 2.00,39.00l0.00,258.00 q0.00,35.25 -2.00,44.50l 169.00,0.00 l0.00-57.25 q-10.75,1.50 -37.75,1.50l-66.75,0.00 l0.00-80.00 l 48.75,0.00 q 22.00,0.00 34.25,1.50l0.00-56.25 q-10.25,1.50 -29.75,1.50l-53.25,0.00 l0.00-96.75 l 72.25,0.00 q 21.50,0.00 38.00,1.50l0.00-57.25 l-174.75,0.00 zM 74.75,520.00l 41.00,23.00l 30.25-76.75l-26.75-13.75z" horiz-adv-x="226.25" />
<glyph unicode="&#xc9;" d="M 24.50,70.50q 2.00,12.75 2.00,39.00l0.00,258.00 q0.00,35.25 -2.00,44.50l 169.00,0.00 l0.00-57.25 q-10.75,1.50 -37.75,1.50l-66.75,0.00 l0.00-80.00 l 48.75,0.00 q 22.00,0.00 34.25,1.50l0.00-56.25 q-10.25,1.50 -29.75,1.50l-53.25,0.00 l0.00-96.75 l 72.25,0.00 q 21.50,0.00 38.00,1.50l0.00-57.25 l-174.75,0.00 zM 87.00,466.25l 29.75,76.75l 41.00-23.00l-44.50-67.50z" horiz-adv-x="207.25" />
<glyph unicode="&#xca;" d="M 24.50,70.50q 2.00,12.75 2.00,39.00l0.00,258.00 q0.00,35.25 -2.00,44.50l 169.00,0.00 l0.00-57.25 q-10.75,1.50 -37.75,1.50l-66.75,0.00 l0.00-80.00 l 48.75,0.00 q 22.00,0.00 34.25,1.50l0.00-56.25 q-10.25,1.50 -29.75,1.50l-53.25,0.00 l0.00-96.75 l 72.25,0.00 q 21.50,0.00 38.00,1.50l0.00-57.25 l-174.75,0.00 zM 53.25,465.75l 38.50,61.00l 51.00,0.00 l 40.00-60.50l-21.00-19.50l-44.00,49.25l-43.50-47.75z" horiz-adv-x="226.25" />
<glyph unicode="&#xcb;" d="M 24.50,70.50q 2.00,12.75 2.00,39.00l0.00,258.00 q0.00,35.25 -2.00,44.50l 169.00,0.00 l0.00-57.25 q-10.75,1.50 -37.75,1.50l-66.75,0.00 l0.00-80.00 l 48.75,0.00 q 22.00,0.00 34.25,1.50l0.00-56.25 q-10.25,1.50 -29.75,1.50l-53.25,0.00 l0.00-96.75 l 72.25,0.00 q 21.50,0.00 38.00,1.50l0.00-57.25 l-174.75,0.00 zM 48.25,492.50q0.00,12.25 8.375,20.625t 20.625,8.375t 21.00-8.375t 8.75-20.625q0.00-11.75 -8.75-20.25t-21.00-8.50t-20.625,8.50t-8.375,20.25zM 132.00,492.50q0.00,12.25 8.75,20.625 t 21.00,8.375t 21.00-8.375t 8.75-20.625q0.00-11.75 -8.75-20.25t-21.00-8.50t-21.00,8.50t-8.75,20.25z" horiz-adv-x="226.25" />
<glyph unicode="&#xcc;" d="M 17.00,520.00l 40.75,23.00l 29.75-76.75l-26.00-13.75zM 24.50,70.50q 2.00,13.25 2.00,48.25l0.00,245.25 q0.00,38.00 -2.00,48.00l 69.75,0.00 q-2.00-11.75 -2.00-47.00l0.00-247.50 q0.00-34.75 2.00-47.00l-69.75,0.00 z" horiz-adv-x="118.75" />
<glyph unicode="&#xcd;" d="M 24.50,70.50q 2.00,13.25 2.00,48.25l0.00,245.25 q0.00,38.00 -2.00,48.00l 69.75,0.00 q-2.00-11.75 -2.00-47.00l0.00-247.50 q0.00-34.75 2.00-47.00l-69.75,0.00 zM 41.00,466.25l 29.75,76.75l 40.75-23.00l-44.50-67.50z" horiz-adv-x="118.75" />
<glyph unicode="&#xce;" d="M-5.75,465.75l 39.00,61.00l 51.25,0.00 l 40.00-60.50l-21.00-19.50l-44.00,49.25l-43.75-47.75zM 24.50,70.50q 2.00,13.25 2.00,48.25l0.00,245.25 q0.00,38.00 -2.00,48.00l 69.75,0.00 q-2.00-11.75 -2.00-47.00l0.00-247.50 q0.00-34.75 2.00-47.00l-69.75,0.00 z" horiz-adv-x="118.75" />
<glyph unicode="&#xcf;" d="M-12.25,492.50q0.00,12.25 8.625,20.625t 21.125,8.375q 11.75,0.00 20.375-8.375t 8.625-20.625q0.00-11.75 -8.625-20.25t-20.375-8.50q-12.25,0.00 -21.00,8.50t-8.75,20.25zM 24.50,70.50q 2.00,13.25 2.00,48.25l0.00,245.25 q0.00,38.00 -2.00,48.00l 69.75,0.00 q-2.00-11.75 -2.00-47.00l0.00-247.50 q0.00-34.75 2.00-47.00l-69.75,0.00 zM 72.25,492.50q0.00,12.25 8.375,20.625t 20.875,8.375q 12.25,0.00 20.875-8.375t 8.625-20.625 q0.00-11.75 -8.625-20.25t-20.875-8.50t-20.75,8.50t-8.50,20.25z" horiz-adv-x="118.75" />
<glyph unicode="&#xd0;" d="M 3.50,230.25l0.00,30.25 q 4.50-0.50 28.75-0.50l 1.50,0.00 l0.00,103.25 q0.00,36.75 -2.00,48.75l 94.75,0.00 q 134.75,0.00 134.50-169.00q0.00-86.50 -22.00-125.00q-27.75-47.50 -100.25-47.50l-107.00,0.00 q 2.00,12.75 2.00,48.25l0.00,112.50 q-21.50,0.00 -30.25-1.00zM 96.25,126.25l 16.00,0.00 q 45.00,0.00 65.25,19.25t 20.25,64.25l0.00,53.75 q0.00,51.25 -18.00,71.25q-19.50,22.00 -70.75,22.00l-12.75,0.00 l0.00-96.75 l 6.75,0.00 q 44.50,0.00 49.00,0.50l0.00-30.25 q-9.25,1.00 -51.25,1.00l-4.50,0.00 l0.00-105.00 z " horiz-adv-x="275.25" />
<glyph unicode="&#xd1;" d="M 13.75,412.00l 65.00,0.00 l 100.50-163.75l0.00,108.00 q0.00,30.25 -2.00,56.75l 64.50,0.00 q-1.50-26.00 -1.50-56.75l0.00-225.75 q0.00-41.50 2.00-60.50l-65.00,0.00 q 2.00,33.25 2.00,53.25l0.00,17.50 l-92.25,149.00l0.00-162.50 q0.00-32.25 2.00-57.25l-65.00,0.00 q 2.00,23.50 2.00,62.50l0.00,256.50 zM 60.00,489.25q 22.00,31.25 48.00,31.25q 9.75,0.00 26.375-8.125t 22.875-8.125q 14.25,0.00 27.00,18.75l 18.00-29.50q-24.00-27.75 -45.50-27.75 q-11.25,0.00 -28.25,8.50t-23.00,8.50q-12.75,0.00 -27.75-22.00z" horiz-adv-x="268.25" />
<glyph unicode="&#xd2;" d="M 17.50,194.00l0.00,100.75 q0.00,52.75 33.00,88.125t 87.25,35.375q 52.75,0.00 84.75-35.375t 32.00-88.125l0.00-100.75 q0.00-55.75 -31.25-91.75q-32.75-38.00 -87.00-38.00q-53.75,0.00 -86.25,35.375t-32.50,94.375zM 82.00,202.50q0.00-83.50 54.25-83.25q 32.75,0.00 45.00,27.00q 8.75,19.00 8.75,56.25l0.00,69.25 q0.00,91.75 -52.25,91.50q-54.75,0.00 -55.25-87.50zM 92.75,520.00l 41.00,23.00l 29.50-76.75 l-26.00-13.75z" horiz-adv-x="279.5" />
<glyph unicode="&#xd3;" d="M 17.50,194.00l0.00,100.75 q0.00,52.75 33.00,88.125t 87.25,35.375q 52.75,0.00 84.75-35.375t 32.00-88.125l0.00-100.75 q0.00-55.75 -31.25-91.75q-32.75-38.00 -87.00-38.00q-53.75,0.00 -86.25,35.375t-32.50,94.375zM 82.00,202.50q0.00-83.50 54.25-83.25q 32.75,0.00 45.00,27.00q 8.75,19.00 8.75,56.25l0.00,69.25 q0.00,91.75 -52.25,91.50q-54.75,0.00 -55.25-87.50zM 115.25,466.25l 29.75,76.75l 40.75-23.00 l-44.50-67.50z" horiz-adv-x="279.5" />
<glyph unicode="&#xd4;" d="M 17.50,194.00l0.00,100.75 q0.00,52.75 33.00,88.125t 87.25,35.375q 52.75,0.00 84.75-35.375t 32.00-88.125l0.00-100.75 q0.00-55.75 -31.25-91.75q-32.75-38.00 -87.00-38.00q-53.75,0.00 -86.25,35.375t-32.50,94.375zM 74.25,465.75l 38.50,61.00l 51.00,0.00 l 40.00-60.50l-21.00-19.50l-44.00,49.25l-43.50-47.75zM 82.00,202.50q0.00-83.50 54.25-83.25q 32.75,0.00 45.00,27.00q 8.75,19.00 8.75,56.25l0.00,69.25  q0.00,91.75 -52.25,91.50q-54.75,0.00 -55.25-87.50z" horiz-adv-x="279.5" />
<glyph unicode="&#xd5;" d="M 17.50,194.00l0.00,100.75 q0.00,52.75 33.00,88.125t 87.25,35.375q 52.75,0.00 84.75-35.375t 32.00-88.125l0.00-100.75 q0.00-55.75 -31.25-91.75q-32.75-38.00 -87.00-38.00q-53.75,0.00 -86.25,35.375t-32.50,94.375zM 68.00,489.25q 22.50,31.25 48.75,31.25q 9.75,0.00 26.375-8.125t 22.875-8.125q 14.25,0.00 27.00,18.75l 17.50-29.50q-23.50-27.75 -45.00-27.75q-11.25,0.00 -28.25,8.50t-23.00,8.50 q-13.25,0.00 -27.75-22.00zM 82.00,202.50q0.00-83.50 54.25-83.25q 32.75,0.00 45.00,27.00q 8.75,19.00 8.75,56.25l0.00,69.25 q0.00,91.75 -52.25,91.50q-54.75,0.00 -55.25-87.50z" horiz-adv-x="279.5" />
<glyph unicode="&#xd6;" d="M 17.50,194.00l0.00,100.75 q0.00,52.75 33.00,88.125t 87.25,35.375q 52.75,0.00 84.75-35.375t 32.00-88.125l0.00-100.75 q0.00-55.75 -31.25-91.75q-32.75-38.00 -87.00-38.00q-53.75,0.00 -86.25,35.375t-32.50,94.375zM 67.50,492.50q0.00,12.25 8.75,20.625t 20.50,8.375q 12.25,0.00 21.00-8.375t 8.75-20.625q0.00-11.75 -8.75-20.25t-21.00-8.50q-11.75,0.00 -20.50,8.50t-8.75,20.25zM 82.00,202.50 q0.00-83.50 54.25-83.25q 32.75,0.00 45.00,27.00q 8.75,19.00 8.75,56.25l0.00,69.25 q0.00,91.75 -52.25,91.50q-54.75,0.00 -55.25-87.50zM 152.00,492.50q0.00,12.25 8.50,20.625t 20.75,8.375t 21.00-8.375t 8.75-20.625q0.00-11.75 -8.75-20.25t-21.00-8.50t-20.75,8.50t-8.50,20.25z" horiz-adv-x="279.5" />
<glyph unicode="&#xd7;" d="M 29.25,165.75l 74.75,75.25l-74.75,75.25l 39.75,40.00l 75.50-74.75l 75.25,74.75l 39.75-40.00l-74.75-75.25l 74.75-75.25l-39.75-40.00l-75.25,74.75l-75.50-74.75z" horiz-adv-x="287" />
<glyph unicode="&#xd8;" d="M-5.75,93.50q 13.25,13.75 36.00,43.50q-17.00,31.75 -17.00,104.00q0.00,175.00 126.00,175.00q 46.00,0.00 76.25-23.50q 6.75,10.75 19.50,32.25l 49.75-36.25q-27.25-28.75 -36.00-43.00q 17.00-50.25 17.00-104.50q0.00-174.50 -126.00-174.50q-46.00,0.00 -75.75,23.50q-8.75-13.25 -19.50-32.75zM 77.75,241.00q0.00-19.50 2.00-39.50l 102.00,140.75q-15.25,21.00 -42.00,21.00q-39.00,0.00 -53.25-44.50 q-8.75-27.00 -8.75-77.75zM 97.75,140.25q 15.75-20.50 42.00-20.50q 41.00,0.00 54.75,48.00q 7.25,26.00 7.25,81.50q0.00-6.25 -1.50,31.75z" horiz-adv-x="279.5" />
<glyph unicode="&#xd9;" d="M 17.00,412.00l 69.50,0.00 q-2.50-13.25 -2.50-39.00l0.00-170.50 q0.00-83.50 54.25-83.25q 32.75,0.00 45.00,27.50q 8.75,18.50 8.75,55.75l0.00,177.75 q0.00,19.00 -3.00,31.75l 70.00,0.00 q-2.00-11.75 -2.50-31.75l0.00-19.00 l0.00-167.25 q0.00-55.25 -30.75-91.75q-32.75-38.00 -87.50-38.00q-55.75,0.00 -88.00,37.50q-30.75,35.75 -30.75,92.25l-0.50,186.25q0.00,10.75 -2.00,31.75zM 121.75,520.00l 41.00,23.00l 29.75-76.75l-26.00-13.75z " horiz-adv-x="285" />
<glyph unicode="&#xda;" d="M 17.00,412.00l 69.50,0.00 q-2.50-13.25 -2.50-39.00l0.00-170.50 q0.00-83.50 54.25-83.25q 32.75,0.00 45.00,27.50q 8.75,18.50 8.75,55.75l0.00,177.75 q0.00,19.00 -3.00,31.75l 70.00,0.00 q-2.00-11.75 -2.50-31.75l0.00-19.00 l0.00-167.25 q0.00-55.25 -30.75-91.75q-32.75-38.00 -87.50-38.00q-55.75,0.00 -88.00,37.50q-30.75,35.75 -30.75,92.25l-0.50,186.25q0.00,10.75 -2.00,31.75zM 146.50,466.25l 29.75,76.75l 40.75-23.00l-44.50-67.50z " horiz-adv-x="285" />
<glyph unicode="&#x5a;" d="M 9.75,70.50l0.00,53.25 q 9.25,12.75 129.00,232.50l-81.00,0.00 q-23.00,0.00 -37.75-2.50l0.00,58.25 l 186.25,0.00 l0.00-52.25 q-9.75-14.25 -128.50-233.50l 93.25,0.00 q 22.00,0.00 35.75,1.50l0.00-57.25 l-197.00,0.00 z" horiz-adv-x="216.5" />
<glyph unicode="&#xdc;" d="M 17.00,412.00l 69.50,0.00 q-2.50-13.25 -2.50-39.00l0.00-170.50 q0.00-83.50 54.25-83.25q 32.75,0.00 45.00,27.50q 8.75,18.50 8.75,55.75l0.00,177.75 q0.00,19.00 -3.00,31.75l 70.00,0.00 q-2.00-11.75 -2.50-31.75l0.00-19.00 l0.00-167.25 q0.00-55.25 -30.75-91.75q-32.75-38.00 -87.50-38.00q-55.75,0.00 -88.00,37.50q-30.75,35.75 -30.75,92.25l-0.50,186.25q0.00,10.75 -2.00,31.75zM 68.00,492.50q0.00,12.25 8.75,20.625t 21.00,8.375 t 20.75-8.375t 8.50-20.625q0.00-11.75 -8.50-20.25t-20.75-8.50t-21.00,8.50t-8.75,20.25zM 152.50,492.50q0.00,12.25 8.75,20.625t 21.00,8.375q 11.75,0.00 20.50-8.375t 8.75-20.625q0.00-11.75 -8.75-20.25t-20.50-8.50q-12.25,0.00 -21.00,8.50t-8.75,20.25z" horiz-adv-x="285" />
<glyph unicode="&#xdd;" d="M 7.75,412.00l 62.50,0.00 q 3.00-19.50 10.25-36.75l 43.00-102.50l 42.00,102.50q 7.25,18.00 9.50,36.75l 64.50,0.00 l-85.50-201.75l0.00-93.25 q0.00-29.25 2.25-46.50l-66.75,0.00 q 2.00,19.00 2.25,48.25l0.00,91.00 zM 103.50,457.50l 29.50,76.25l 41.00-23.00l-44.50-67.50z" horiz-adv-x="245.75" />
<glyph unicode="&#xde;" d="M 26.00,476.50l 67.25,0.00 q-2.00-11.75 -2.00-31.25l0.00-33.25 l 12.25,0.00 q 53.75,0.00 89.50-29.25q 39.00-31.75 39.00-84.00q0.00-56.25 -45.75-99.75q-28.75-27.25 -95.00-62.50l0.00-28.00 q-0.50-25.50 2.00-38.00l-66.75,0.00 q 2.00,21.50 2.25,48.25l0.00,326.50 q-0.25,21.00 -2.75,31.25zM 91.25,203.00q 30.75,11.75 52.50,35.50q 25.00,27.25 25.25,56.75q0.00,27.25 -18.25,44.125t-45.75,16.875l-13.75,0.00 l0.00-153.25 z" horiz-adv-x="242" />
<glyph unicode="&#xdf;" d="M 20.50,70.50q 1.50,11.75 1.50,38.00l0.00,149.50 q0.00,43.50 4.00,66.50q 7.75,43.00 31.25,65.00q 28.25,26.50 66.75,26.50q 35.25,0.00 59.50-22.00t 24.25-56.25q0.00-41.50 -29.50-69.50q 23.50-2.00 36.25-22.75q 10.75-17.50 10.75-42.50q0.00-47.50 -29.75-88.00q-27.75-37.50 -73.25-58.75l-32.25,44.50q 28.75,12.25 49.75,36.75q 24.50,28.25 24.50,57.00q0.00,30.75 -28.00,30.50q-8.25,0.00 -21.00-4.00l-17.50,44.00 q 22.00,7.25 36.625,27.50t 14.625,42.75q0.00,27.75 -22.50,27.50q-45.00,0.00 -45.00-105.25l0.00-149.00 q0.00-26.00 1.50-38.00l-62.50,0.00 z" horiz-adv-x="237" />
<glyph unicode="&#xe0;" d="M 9.25,137.00q0.00,36.75 24.50,58.50q 23.00,21.00 58.00,21.00q 16.50,0.00 31.25-4.25l0.00,5.25 q0.00,32.25 -35.00,32.25q-22.00,0.00 -54.25-12.25l0.00,52.25 q 38.50,10.25 61.00,10.25q 47.00,0.00 65.00-20.75t 18.00-70.00l0.00-107.50 q0.00-22.50 1.50-31.25l-53.25,0.00 l0.00,19.00 q-24.00-23.00 -51.75-23.00q-28.75,0.00 -46.875,20.125t-18.125,50.375zM 59.50,403.75l 40.75,23.00l 30.25-76.25l-26.50-14.25zM 64.00,141.75 q0.00-10.25 7.375-16.625t 17.125-6.375q 14.75,0.00 24.625,9.375t 9.875,23.375l0.00,13.75 q-10.75,4.50 -23.25,4.50q-14.25,0.00 -24.00-6.00q-11.75-7.75 -11.75-22.00z" horiz-adv-x="198" />
<glyph unicode="&#xe1;" d="M 9.25,137.00q0.00,36.75 24.50,58.50q 23.00,21.00 58.00,21.00q 16.50,0.00 31.25-4.25l0.00,5.25 q0.00,32.25 -35.00,32.25q-22.00,0.00 -54.25-12.25l0.00,52.25 q 38.50,10.25 61.00,10.25q 47.00,0.00 65.00-20.75t 18.00-70.00l0.00-107.50 q0.00-22.50 1.50-31.25l-53.25,0.00 l0.00,19.00 q-24.00-23.00 -51.75-23.00q-28.75,0.00 -46.875,20.125t-18.125,50.375zM 64.00,141.75q0.00-10.25 7.375-16.625t 17.125-6.375q 14.75,0.00 24.625,9.375 t 9.875,23.375l0.00,13.75 q-10.75,4.50 -23.25,4.50q-14.25,0.00 -24.00-6.00q-11.75-7.75 -11.75-22.00zM 77.25,350.50l 29.25,76.25l 41.50-23.00l-44.50-67.50z" horiz-adv-x="198" />
<glyph unicode="&#xe2;" d="M 9.25,137.00q0.00,36.75 24.50,58.50q 23.00,21.00 58.00,21.00q 16.50,0.00 31.25-4.25l0.00,5.25 q0.00,32.25 -35.00,32.25q-22.00,0.00 -54.25-12.25l0.00,52.25 q 38.50,10.25 61.00,10.25q 47.00,0.00 65.00-20.75t 18.00-70.00l0.00-107.50 q0.00-22.50 1.50-31.25l-53.25,0.00 l0.00,19.00 q-24.00-23.00 -51.75-23.00q-28.75,0.00 -46.875,20.125t-18.125,50.375zM 30.75,350.00l 39.00,60.50l 51.00,0.00 l 40.00-60.50l-21.00-19.00l-44.00,49.25l-43.50-48.00 zM 64.00,141.75q0.00-10.25 7.375-16.625t 17.125-6.375q 14.75,0.00 24.625,9.375t 9.875,23.375l0.00,13.75 q-10.75,4.50 -23.25,4.50q-14.25,0.00 -24.00-6.00q-11.75-7.75 -11.75-22.00z" horiz-adv-x="199" />
<glyph unicode="&#xe3;" d="M 9.25,137.00q0.00,36.75 24.50,58.50q 23.00,21.00 58.00,21.00q 16.50,0.00 31.25-4.25l0.00,5.25 q0.00,32.25 -35.00,32.25q-22.00,0.00 -54.25-12.25l0.00,52.25 q 38.50,10.25 61.00,10.25q 47.00,0.00 65.00-20.75t 18.00-70.00l0.00-107.50 q0.00-22.50 1.50-31.25l-53.25,0.00 l0.00,19.00 q-24.00-23.00 -51.75-23.00q-28.75,0.00 -46.875,20.125t-18.125,50.375zM 27.25,373.00q 22.00,31.25 48.00,31.25q 10.25,0.00 26.625-7.875t 23.125-7.875 q 14.25,0.00 27.00,19.00l 17.50-30.25q-23.50-27.75 -45.00-27.75q-11.25,0.00 -28.25,8.75t-23.00,8.75q-13.25,0.00 -28.25-22.00zM 64.00,141.75q0.00-10.25 7.375-16.625t 17.125-6.375q 14.75,0.00 24.625,9.375t 9.875,23.375l0.00,13.75 q-10.75,4.50 -23.25,4.50q-14.25,0.00 -24.00-6.00q-11.75-7.75 -11.75-22.00z" horiz-adv-x="199" />
<glyph unicode="&#xe4;" d="M 9.25,137.00q0.00,36.75 24.50,58.50q 23.00,21.00 58.00,21.00q 16.50,0.00 31.25-4.25l0.00,5.25 q0.00,32.25 -35.00,32.25q-22.00,0.00 -54.25-12.25l0.00,52.25 q 38.50,10.25 61.00,10.25q 47.00,0.00 65.00-20.75t 18.00-70.00l0.00-107.50 q0.00-22.50 1.50-31.25l-53.25,0.00 l0.00,19.00 q-24.00-23.00 -51.75-23.00q-28.75,0.00 -46.875,20.125t-18.125,50.375zM 24.50,376.75q0.00,11.75 8.50,20.125t 20.75,8.375t 21.00-8.375t 8.75-20.125 q0.00-12.25 -8.75-20.75t-21.00-8.50t-20.75,8.50t-8.50,20.75zM 64.00,141.75q0.00-10.25 7.375-16.625t 17.125-6.375q 14.75,0.00 24.625,9.375t 9.875,23.375l0.00,13.75 q-10.75,4.50 -23.25,4.50q-14.25,0.00 -24.00-6.00q-11.75-7.75 -11.75-22.00zM 108.50,376.75q0.00,11.75 8.75,20.125t 21.00,8.375t 20.75-8.375t 8.50-20.125q0.00-12.25 -8.50-20.75t-20.75-8.50t-21.00,8.50t-8.75,20.75z" horiz-adv-x="199" />
<glyph unicode="&#xe5;" d="M 9.25,137.00q0.00,36.75 24.50,58.50q 23.00,21.00 58.00,21.00q 16.50,0.00 31.25-4.25l0.00,5.25 q0.00,32.25 -35.00,32.25q-22.00,0.00 -54.25-12.25l0.00,52.25 q 38.50,10.25 61.00,10.25q 47.00,0.00 65.00-20.75t 18.00-70.00l0.00-107.50 q0.00-22.50 1.50-31.25l-53.25,0.00 l0.00,19.00 q-24.00-23.00 -51.75-23.00q-28.75,0.00 -46.875,20.125t-18.125,50.375zM 43.50,376.75q0.00,22.00 15.375,37.375t 37.375,15.375t 37.625-15.375 t 15.625-37.375t-15.375-37.375t-37.875-15.375q-21.50,0.00 -37.125,15.375t-15.625,37.375zM 64.00,141.75q0.00-10.25 7.375-16.625t 17.125-6.375q 14.75,0.00 24.625,9.375t 9.875,23.375l0.00,13.75 q-10.75,4.50 -23.25,4.50q-14.25,0.00 -24.00-6.00q-11.75-7.75 -11.75-22.00zM 78.75,376.75q0.00-7.25 5.375-12.625t 12.125-5.375q 7.75,0.00 12.875,5.125t 5.125,12.875q0.00,17.50 -18.00,17.25 q-7.25,0.00 -12.375-5.00t-5.125-12.25z" horiz-adv-x="199.5" />
<glyph unicode="&#xe6;" d="M 9.75,137.00q0.00,39.50 28.25,60.50q 25.50,18.50 66.00,18.50q 7.75,0.00 25.50-1.75l 0.50,4.25q 1.50,30.75 -36.75,30.75q-26.00,0.00 -66.75-15.00l0.00,55.50 q 41.00,9.75 72.75,9.50q 43.00,0.00 64.50-22.50q 27.75,23.50 57.50,23.75q 42.50,0.00 66.50-30.75q 21.50-27.75 21.50-71.25q0.00-15.25 -2.00-31.25l-119.75,0.00 q 1.00-23.00 14.75-36.125t 36.75-13.125q 20.00,0.00 30.25,3.25q 7.75,2.50 20.50,11.75l0.00-52.75 q-19.00-8.75 -24.50-10.25 q-10.25-3.00 -29.75-3.00q-49.25,0.00 -78.75,28.50q-37.50-29.25 -77.00-29.00q-31.25,0.00 -50.625,19.625t-19.375,50.875zM 69.00,141.25q0.00-21.50 25.75-21.50q 18.50,0.00 37.75,15.25q-5.00,17.50 -5.50,32.75q-12.25,1.50 -18.50,1.50q-39.50,0.25 -39.50-28.00zM 187.00,214.25l 66.50,0.00 q-2.00,38.50 -32.75,38.50q-31.25,0.00 -33.75-38.50z" horiz-adv-x="325.5" />
<glyph unicode="&#xe7;" d="M 15.75,181.00q0.00,48.25 25.25,82.00q 27.25,36.25 72.25,36.25q 25.50,0.00 53.25-14.75l0.00-54.25 q-21.00,18.50 -43.00,18.50q-23.50,0.00 -37.00-20.50q-12.25-18.00 -12.25-43.50q0.00-25.00 12.75-43.00q 13.75-20.00 36.50-20.00q 25.00,0.00 49.00,20.50l0.00-59.50 q-25.50-13.25 -50.25-15.25l-2.50-21.00q 19.00-9.25 19.00-29.75q0.00-23.50 -23.50-36.75q-20.00-11.25 -45.50-11.50q-5.00,0.00 -9.75,0.50l-3.25,39.00 q 7.25-2.00 14.50-2.00q 26.50,0.00 26.50,18.50q0.00,10.75 -11.25,14.75l 3.50,30.75q-34.25,8.75 -54.25,39.375t-20.00,71.625z" horiz-adv-x="181.75" />
<glyph unicode="&#xe8;" d="M 13.25,186.75q0.00,46.00 22.00,77.75q 24.50,34.75 67.75,34.75q 42.00,0.00 64.50-28.50q 21.00-27.25 21.00-72.25q0.00-17.50 -1.50-31.75l-113.75,0.00 q 4.00-49.25 48.50-49.25q 29.25,0.00 51.25,15.00l0.00-54.75 q-30.75-11.75 -54.75-11.75q-50.75,0.00 -78.25,34.25q-26.75,32.25 -26.75,86.50zM 53.25,403.75l 41.00,23.00l 29.75-76.25l-26.25-14.25zM 72.75,213.25l 63.00,0.00 q-1.00,39.00 -31.25,39.00 q-29.75,0.00 -31.75-39.00z" horiz-adv-x="203.25" />
<glyph unicode="&#xe9;" d="M 13.25,186.75q0.00,46.00 22.00,77.75q 24.50,34.75 67.75,34.75q 42.00,0.00 64.50-28.50q 21.00-27.25 21.00-72.25q0.00-17.50 -1.50-31.75l-113.75,0.00 q 4.00-49.25 48.50-49.25q 29.25,0.00 51.25,15.00l0.00-54.75 q-30.75-11.75 -54.75-11.75q-50.75,0.00 -78.25,34.25q-26.75,32.25 -26.75,86.50zM 72.75,213.25l 63.00,0.00 q-1.00,39.00 -31.25,39.00q-29.75,0.00 -31.75-39.00zM 74.25,350.50l 29.75,76.25l 41.00-23.00 l-44.75-67.50z" horiz-adv-x="204.75" />
<glyph unicode="&#xea;" d="M 13.25,186.75q0.00,46.00 22.00,77.75q 24.50,34.75 67.75,34.75q 42.00,0.00 64.50-28.50q 21.00-27.25 21.00-72.25q0.00-17.50 -1.50-31.75l-113.75,0.00 q 4.00-49.25 48.50-49.25q 29.25,0.00 51.25,15.00l0.00-54.75 q-30.75-11.75 -54.75-11.75q-50.75,0.00 -78.25,34.25q-26.75,32.25 -26.75,86.50zM 36.25,350.00l 39.00,60.50l 51.25,0.00 l 40.00-60.50l-21.00-19.00l-44.00,49.25l-43.75-48.00zM 72.75,213.25l 63.00,0.00  q-1.00,39.00 -31.25,39.00q-29.75,0.00 -31.75-39.00z" horiz-adv-x="202.75" />
<glyph unicode="&#xeb;" d="M 13.25,186.75q0.00,46.00 22.00,77.75q 24.50,34.75 67.75,34.75q 42.00,0.00 64.50-28.50q 21.00-27.25 21.00-72.25q0.00-17.50 -1.50-31.75l-113.75,0.00 q 4.00-49.25 48.50-49.25q 29.25,0.00 51.25,15.00l0.00-54.75 q-30.75-11.75 -54.75-11.75q-50.75,0.00 -78.25,34.25q-26.75,32.25 -26.75,86.50zM 29.25,376.75q0.00,11.75 8.625,20.125t 21.125,8.375q 12.25,0.00 20.625-8.375t 8.375-20.125q0.00-12.25 -8.375-20.75 t-20.625-8.50t-21.00,8.50t-8.75,20.75zM 72.75,213.25l 63.00,0.00 q-1.00,39.00 -31.25,39.00q-29.75,0.00 -31.75-39.00zM 113.75,376.75q0.00,11.75 8.625,20.125t 20.875,8.375q 11.75,0.00 20.50-8.375t 8.75-20.125q0.00-12.25 -8.625-20.75t-20.625-8.50q-12.25,0.00 -20.875,8.50t-8.625,20.75z" horiz-adv-x="203.25" />
<glyph unicode="&#xec;" d="M 1.00,403.75l 40.50,23.00l 30.25-76.25l-26.75-14.25zM 17.50,70.50q 1.00,10.25 1.00,34.75l0.00,159.25 q0.00,24.00 -1.00,33.25l 57.75,0.00 q-1.00-9.75 -1.00-32.25l0.00-157.00 q0.00-26.00 1.00-38.00l-57.75,0.00 z" horiz-adv-x="96.25" />
<glyph unicode="&#xed;" d="M 17.50,70.50q 1.00,10.25 1.00,34.75l0.00,159.25 q0.00,24.00 -1.00,33.25l 57.75,0.00 q-1.00-9.75 -1.00-32.25l0.00-157.00 q0.00-26.00 1.00-38.00l-57.75,0.00 zM 21.00,350.50l 29.75,76.25l 41.00-23.00l-44.75-67.50z" horiz-adv-x="96.75" />
<glyph unicode="&#xee;" d="M-19.00,350.00l 39.00,60.50l 51.25,0.00 l 39.75-60.50l-21.00-19.00l-44.00,49.25l-43.50-48.00zM 15.25,70.50q 1.50,10.25 1.75,34.75l0.00,159.25 q0.00,24.00 -1.75,33.25l 61.50,0.00 q-1.50-9.75 -1.50-32.25l0.00-157.00 q0.00-26.00 1.50-38.00l-61.50,0.00 z" horiz-adv-x="97.25" />
</font>
</defs>
</svg>
